<svg width="1455" height="246" viewBox="0 0 1455 246" fill="none" xmlns="http://www.w3.org/2000/svg">
<path d="M0.988557 233.07L0.990268 233.07L1454.95 245.033C1441.45 207.933 1399.95 175.98 1351.37 157.933C1290.98 135.495 1221.25 130.64 1153.42 128.234C1085.61 125.829 1016.54 125.311 951.817 110.394C854.302 87.9178 773.747 34.3518 677.786 11.1497C676.685 10.8731 675.584 10.6092 674.484 10.3581C673.383 10.0942 672.282 9.84302 671.181 9.60461C661.326 7.37019 651.273 5.47818 641.038 3.97966C632.687 2.75146 624.334 1.81628 615.961 1.12305C526.007 -6.29371 466.491 139.412 360.491 123.5C313.491 110 251.05 35.0839 204.5 30.1521C129.209 22.1552 75.5 233.682 0.988557 233.07Z" fill="#BDEBDF"/>
</svg>
