<svg width="873" height="484" viewBox="0 0 873 484" fill="none" xmlns="http://www.w3.org/2000/svg">
<g id="Couple-Saving">
<path id="Background" d="M53.4911 482.84C53.4911 482.84 -53.6773 367.802 35.3683 243.255C114.376 132.751 206.488 140.304 274.071 185.147C302.854 204.247 385.842 187.501 456.476 75.0591C552.8 -78.2824 886.698 14.7183 825.82 250.641C796.357 364.811 915.484 368.961 854.784 483.082L53.4911 482.84Z" fill="#BDEBDF"/>
<g id="Coin-Jar">
<g id="Group">
<path id="Vector" d="M586.331 359.88L594.552 361.231C595.206 361.338 595.786 361.615 596.241 361.996C596.721 362.398 597.066 362.921 597.212 363.493C597.258 363.667 597.287 363.845 597.291 364.027C597.298 364.19 597.29 364.357 597.262 364.524L578.35 479.122C578.104 480.597 576.567 481.597 574.889 481.397C574.835 481.39 574.778 481.383 574.725 481.373L566.505 480.021C566.451 480.011 566.398 480.003 566.341 479.993C564.687 479.644 563.549 478.208 563.794 476.728L582.707 362.131C582.735 361.964 582.778 361.804 582.838 361.651C582.902 361.484 582.984 361.32 583.084 361.171C583.408 360.677 583.898 360.293 584.485 360.065C585.04 359.848 585.677 359.773 586.331 359.88Z" fill="#FFB93E"/>
<path id="Vector_2" d="M588.434 418.027L578.3 479.42C578.083 480.74 576.564 481.604 574.885 481.397C574.832 481.39 574.775 481.383 574.721 481.373L566.501 480.021C566.448 480.011 566.395 480.003 566.338 479.993C564.68 479.651 563.524 478.346 563.741 477.027L572.63 423.173C577.058 423.016 583.315 421.988 588.43 418.027H588.434Z" fill="#FFA412"/>
<g id="Group_2">
<path id="Vector_3" d="M580.824 373.265L580.609 374.567L595.163 376.97L595.378 375.669L580.824 373.265Z" fill="#FFA412"/>
<path id="Vector_4" d="M580.164 377.733L579.949 379.034L594.504 381.433L594.719 380.131L580.164 377.733Z" fill="#FFA412"/>
<path id="Vector_5" d="M579.237 382.972L579.023 384.274L593.577 386.675L593.791 385.373L579.237 382.972Z" fill="#FFA412"/>
<path id="Vector_6" d="M577.933 391.108L577.719 392.41L592.273 394.811L592.487 393.509L577.933 391.108Z" fill="#FFA412"/>
<path id="Vector_7" d="M576.504 399.665L576.289 400.966L590.843 403.367L591.058 402.066L576.504 399.665Z" fill="#FFA412"/>
<path id="Vector_8" d="M574.358 412.826L574.143 414.128L588.698 416.526L588.912 415.225L574.358 412.826Z" fill="#FFA412"/>
<path id="Vector_9" d="M572.275 425.068L572.06 426.37L586.613 428.774L586.828 427.472L572.275 425.068Z" fill="#FFA412"/>
<path id="Vector_10" d="M570.508 436.097L570.293 437.399L584.847 439.8L585.062 438.498L570.508 436.097Z" fill="#FFA412"/>
<path id="Vector_11" d="M581.573 369.122L581.358 370.424L595.913 372.823L596.127 371.521L581.573 369.122Z" fill="#FFA412"/>
<path id="Vector_12" d="M582.006 366.327L581.791 367.628L596.345 370.029L596.56 368.728L582.006 366.327Z" fill="#FFA412"/>
<path id="Vector_13" d="M582.471 363.671L582.257 364.973L596.811 367.371L597.026 366.069L582.471 363.671Z" fill="#FFA412"/>
<path id="Vector_14" d="M582.572 362.945L597.127 365.339L597.262 364.524C597.29 364.357 597.298 364.19 597.291 364.027L582.835 361.651C582.774 361.804 582.732 361.964 582.703 362.131L582.568 362.945H582.572Z" fill="#FFA412"/>
<path id="Vector_15" d="M583.084 361.171L597.212 363.493C597.066 362.924 596.721 362.401 596.241 361.996L584.482 360.061C583.898 360.289 583.404 360.673 583.08 361.167L583.084 361.171Z" fill="#FFA412"/>
</g>
</g>
<g id="Group_3">
<path id="Vector_16" d="M601.246 359.88L609.466 361.231C610.12 361.338 610.7 361.615 611.155 361.996C611.635 362.398 611.98 362.921 612.126 363.493C612.173 363.667 612.197 363.845 612.205 364.027C612.212 364.19 612.205 364.357 612.176 364.524L593.264 479.122C593.018 480.597 591.482 481.597 589.803 481.397C589.749 481.39 589.692 481.383 589.639 481.373L581.419 480.021C581.366 480.011 581.312 480.003 581.255 479.993C579.601 479.644 578.463 478.208 578.708 476.728L597.621 362.131C597.649 361.964 597.692 361.804 597.753 361.651C597.817 361.484 597.898 361.32 597.998 361.171C598.322 360.677 598.813 360.293 599.399 360.065C599.954 359.848 600.591 359.773 601.246 359.88Z" fill="#FFB93E"/>
<path id="Vector_17" d="M603.348 418.027L593.214 479.42C592.997 480.74 591.478 481.604 589.799 481.397C589.746 481.39 589.689 481.383 589.636 481.373L581.415 480.021C581.362 480.011 581.309 480.003 581.252 479.993C579.594 479.651 578.438 478.346 578.655 477.027L587.544 423.173C591.972 423.016 598.229 421.988 603.344 418.027H603.348Z" fill="#FFA412"/>
<g id="Group_4">
<path id="Vector_18" d="M595.736 373.262L595.521 374.564L610.075 376.967L610.29 375.665L595.736 373.262Z" fill="#FFA412"/>
<path id="Vector_19" d="M595.088 377.75L594.873 379.052L609.428 381.45L609.642 380.148L595.088 377.75Z" fill="#FFA412"/>
<path id="Vector_20" d="M594.147 382.968L593.932 384.27L608.486 386.671L608.701 385.369L594.147 382.968Z" fill="#FFA412"/>
<path id="Vector_21" d="M592.832 391.094L592.617 392.396L607.171 394.797L607.386 393.495L592.832 391.094Z" fill="#FFA412"/>
<path id="Vector_22" d="M591.417 399.664L591.202 400.966L605.756 403.367L605.971 402.065L591.417 399.664Z" fill="#FFA412"/>
<path id="Vector_23" d="M589.227 412.777L589.013 414.079L603.567 416.48L603.781 415.178L589.227 412.777Z" fill="#FFA412"/>
<path id="Vector_24" d="M587.217 425.101L587.002 426.403L601.556 428.804L601.771 427.502L587.217 425.101Z" fill="#FFA412"/>
<path id="Vector_25" d="M585.406 436.086L585.191 437.388L599.745 439.789L599.96 438.487L585.406 436.086Z" fill="#FFA412"/>
<path id="Vector_26" d="M596.441 369.08L596.226 370.382L610.78 372.783L610.995 371.481L596.441 369.08Z" fill="#FFA412"/>
<path id="Vector_27" d="M596.964 366.369L596.75 367.67L611.304 370.069L611.519 368.767L596.964 366.369Z" fill="#FFA412"/>
<path id="Vector_28" d="M597.385 363.674L597.17 364.976L611.724 367.374L611.939 366.072L597.385 363.674Z" fill="#FFA412"/>
<path id="Vector_29" d="M597.486 362.945L612.041 365.339L612.176 364.524C612.205 364.357 612.212 364.19 612.205 364.027L597.749 361.651C597.689 361.804 597.646 361.964 597.617 362.131L597.482 362.945H597.486Z" fill="#FFA412"/>
<path id="Vector_30" d="M597.998 361.171L612.126 363.493C611.981 362.924 611.635 362.401 611.155 361.996L599.396 360.061C598.813 360.289 598.318 360.673 597.994 361.167L597.998 361.171Z" fill="#FFA412"/>
</g>
</g>
<g id="Group_5">
<g id="Group_6">
<path id="Vector_31" d="M546.707 469.897L546.693 478.225C546.693 478.89 546.515 479.506 546.209 480.018C545.889 480.555 545.427 480.978 544.89 481.216C544.726 481.291 544.552 481.344 544.374 481.38C544.214 481.412 544.047 481.43 543.88 481.43L427.705 481.152C426.207 481.152 424.977 479.79 424.902 478.101C424.902 478.044 424.902 477.991 424.902 477.937L424.916 469.609C424.916 469.556 424.916 469.499 424.916 469.445C424.994 467.756 426.232 466.405 427.73 466.408L543.905 466.686C544.072 466.686 544.239 466.703 544.399 466.739C544.577 466.775 544.748 466.831 544.915 466.906C545.452 467.144 545.914 467.571 546.231 468.112C546.533 468.624 546.711 469.243 546.711 469.904L546.707 469.897Z" fill="#FFB93E"/>
<path id="Vector_32" d="M489.639 481.302L427.399 481.152C426.062 481.152 424.962 479.79 424.898 478.101C424.898 478.044 424.898 477.991 424.898 477.937L424.913 469.609C424.913 469.556 424.913 469.499 424.913 469.445C424.984 467.756 426.086 466.405 427.424 466.408L482.02 466.536C482.884 470.882 484.905 476.888 489.636 481.302H489.639Z" fill="#FFA412"/>
<g id="Group_7">
<path id="Vector_33" d="M531.3 466.685L531.264 481.433L532.584 481.436L532.62 466.688L531.3 466.685Z" fill="#FFA412"/>
<path id="Vector_34" d="M526.829 466.678L526.793 481.425L528.112 481.429L528.148 466.681L526.829 466.678Z" fill="#FFA412"/>
<path id="Vector_35" d="M521.422 466.619L521.384 481.366L522.703 481.369L522.742 466.622L521.422 466.619Z" fill="#FFA412"/>
<path id="Vector_36" d="M513.181 466.574L513.148 481.321L514.468 481.324L514.501 466.577L513.181 466.574Z" fill="#FFA412"/>
<path id="Vector_37" d="M504.564 466.624L504.528 481.372L505.848 481.375L505.884 466.628L504.564 466.624Z" fill="#FFA412"/>
<path id="Vector_38" d="M491.246 466.592L491.21 481.34L492.53 481.343L492.566 466.596L491.246 466.592Z" fill="#FFA412"/>
<path id="Vector_39" d="M478.777 466.564L478.741 481.311L480.061 481.314L480.097 466.567L478.777 466.564Z" fill="#FFA412"/>
<path id="Vector_40" d="M467.61 466.504L467.572 481.252L468.891 481.255L468.93 466.508L467.61 466.504Z" fill="#FFA412"/>
<path id="Vector_41" d="M535.554 466.696L535.518 481.443L536.837 481.446L536.874 466.699L535.554 466.696Z" fill="#FFA412"/>
<path id="Vector_42" d="M538.324 466.665L538.293 481.413L539.612 481.415L539.643 466.668L538.324 466.665Z" fill="#FFA412"/>
<path id="Vector_43" d="M541.077 466.71L541.041 481.458L542.361 481.461L542.397 466.713L541.077 466.71Z" fill="#FFA412"/>
<path id="Vector_44" d="M543.079 466.679L543.051 481.426H543.876C544.047 481.426 544.21 481.412 544.37 481.376L544.399 466.732C544.239 466.696 544.072 466.679 543.904 466.679H543.079Z" fill="#FFA412"/>
<path id="Vector_45" d="M544.915 466.899L544.89 481.216C545.43 480.981 545.889 480.558 546.209 480.018L546.231 468.105C545.911 467.564 545.452 467.141 544.915 466.899Z" fill="#FFA412"/>
</g>
</g>
<g id="Group_8">
<path id="Vector_46" d="M534.315 455.121L534.301 463.45C534.301 464.115 534.123 464.73 533.817 465.242C533.497 465.779 533.034 466.202 532.497 466.44C532.334 466.515 532.159 466.568 531.981 466.604C531.821 466.636 531.654 466.654 531.487 466.654L415.312 466.376C413.815 466.376 412.584 465.014 412.509 463.325C412.509 463.268 412.509 463.215 412.509 463.162L412.524 454.833C412.524 454.78 412.524 454.723 412.524 454.67C412.602 452.98 413.84 451.629 415.337 451.633L531.512 451.91C531.587 451.91 531.661 451.913 531.732 451.921C531.765 451.921 531.797 451.924 531.829 451.931C531.864 451.931 531.9 451.942 531.932 451.945C531.957 451.945 531.981 451.956 532.006 451.96C532.184 451.995 532.355 452.052 532.519 452.127C532.543 452.138 532.568 452.148 532.593 452.162C532.618 452.173 532.643 452.184 532.664 452.198C532.711 452.223 532.76 452.251 532.807 452.276C532.832 452.294 532.86 452.312 532.889 452.33C532.913 452.347 532.935 452.358 532.96 452.379C533.006 452.408 533.049 452.44 533.091 452.475C533.141 452.514 533.187 452.557 533.237 452.6C533.273 452.632 533.308 452.667 533.347 452.703C533.347 452.703 533.351 452.703 533.355 452.71C533.379 452.735 533.401 452.76 533.426 452.785C533.497 452.859 533.564 452.941 533.628 453.023C533.65 453.048 533.667 453.073 533.685 453.098C533.703 453.123 533.721 453.147 533.739 453.176C533.774 453.229 533.81 453.283 533.842 453.34C534.144 453.855 534.322 454.47 534.322 455.132L534.315 455.121Z" fill="#FFB93E"/>
<path id="Vector_47" d="M477.247 466.522L415.006 466.373C413.669 466.373 412.57 465.011 412.506 463.322C412.506 463.265 412.506 463.211 412.506 463.158L412.52 454.829C412.52 454.776 412.52 454.719 412.52 454.666C412.591 452.977 413.694 451.625 415.031 451.625L469.624 451.757C469.649 451.878 469.674 451.999 469.699 452.12C470.602 456.43 472.64 462.233 477.239 466.522H477.247Z" fill="#FFA412"/>
<g id="Group_9">
<path id="Vector_48" d="M518.829 451.839L518.795 466.587L520.115 466.59L520.148 451.842L518.829 451.839Z" fill="#FFA412"/>
<path id="Vector_49" d="M514.362 451.828L514.328 466.576L515.648 466.579L515.681 451.831L514.362 451.828Z" fill="#FFA412"/>
<path id="Vector_50" d="M509.075 451.884L509.039 466.631L510.359 466.634L510.395 451.887L509.075 451.884Z" fill="#FFA412"/>
<path id="Vector_51" d="M500.856 451.866L500.82 466.613L502.14 466.617L502.176 451.869L500.856 451.866Z" fill="#FFA412"/>
<path id="Vector_52" d="M492.128 451.808L492.097 466.556L493.417 466.559L493.448 451.811L492.128 451.808Z" fill="#FFA412"/>
<path id="Vector_53" d="M478.819 451.779L478.781 466.526L480.1 466.53L480.139 451.782L478.819 451.779Z" fill="#FFA412"/>
<path id="Vector_54" d="M466.379 451.784L466.343 466.531L467.663 466.534L467.699 451.787L466.379 451.784Z" fill="#FFA412"/>
<path id="Vector_55" d="M455.208 451.723L455.177 466.47L456.496 466.473L456.527 451.726L455.208 451.723Z" fill="#FFA412"/>
<path id="Vector_56" d="M523.085 451.85L523.052 466.597L524.371 466.6L524.405 451.853L523.085 451.85Z" fill="#FFA412"/>
<path id="Vector_57" d="M525.969 451.927L525.933 466.674L527.253 466.677L527.289 451.93L525.969 451.927Z" fill="#FFA412"/>
<path id="Vector_58" d="M528.686 451.934L528.65 466.681L529.97 466.684L530.006 451.937L528.686 451.934Z" fill="#FFA412"/>
<path id="Vector_59" d="M530.683 451.899L530.655 466.647H531.48C531.651 466.647 531.814 466.632 531.974 466.597L532.003 451.953C531.843 451.917 531.676 451.899 531.508 451.899H530.683Z" fill="#FFA412"/>
<path id="Vector_60" d="M532.519 452.123L532.494 466.437C533.034 466.202 533.493 465.779 533.813 465.238L533.835 453.325C533.515 452.785 533.056 452.361 532.519 452.12V452.123Z" fill="#FFA412"/>
</g>
</g>
<path id="Vector_61" d="M540.344 440.751L540.33 449.079C540.33 449.744 540.152 450.359 539.846 450.871C539.526 451.408 539.063 451.835 538.526 452.07C538.363 452.145 538.188 452.198 538.011 452.233C537.851 452.265 537.683 452.283 537.516 452.283L421.341 452.006C420.875 452.006 420.434 451.871 420.047 451.64C419.225 451.145 418.638 450.199 418.549 449.097C418.546 449.051 418.542 449.001 418.538 448.955C418.538 448.901 418.538 448.844 418.538 448.791L418.553 440.463C418.553 440.409 418.553 440.352 418.553 440.299C418.631 438.61 419.869 437.258 421.366 437.262L537.541 437.536C537.712 437.536 537.875 437.554 538.035 437.589C538.213 437.625 538.384 437.682 538.551 437.756C539.088 437.995 539.547 438.421 539.867 438.962C540.17 439.474 540.347 440.093 540.344 440.754V440.751Z" fill="#FFB93E"/>
<path id="Vector_62" d="M483.276 452.152L421.035 452.002C420.619 452.002 420.224 451.867 419.879 451.636C419.147 451.142 418.624 450.196 418.542 449.097C418.538 449.051 418.535 449.001 418.531 448.955C418.531 448.901 418.531 448.844 418.531 448.791L418.546 440.463C418.546 440.409 418.546 440.352 418.546 440.299C418.617 438.61 419.719 437.258 421.057 437.262L475.653 437.39C476.492 441.615 478.427 447.415 482.888 451.792C483.012 451.913 483.14 452.038 483.269 452.159L483.276 452.152Z" fill="#FFA412"/>
<path id="Vector_63" d="M543.154 426.007L543.14 434.335C543.14 435 542.962 435.616 542.656 436.128C542.336 436.665 541.873 437.091 541.336 437.326C541.173 437.401 540.998 437.454 540.821 437.49C540.657 437.522 540.493 437.539 540.326 437.539L424.151 437.262C422.654 437.262 421.423 435.9 421.349 434.211C421.349 434.154 421.349 434.101 421.349 434.047L421.363 425.719C421.363 425.665 421.363 425.609 421.363 425.555C421.434 423.99 422.497 422.717 423.842 422.54C423.952 422.525 424.062 422.518 424.176 422.518L540.351 422.796C540.522 422.796 540.685 422.813 540.845 422.849C541.023 422.885 541.194 422.941 541.361 423.016C541.898 423.254 542.361 423.681 542.677 424.222C542.98 424.734 543.158 425.352 543.154 426.014V426.007Z" fill="#FFB93E"/>
<path id="Vector_64" d="M486.086 437.411L423.846 437.262C422.508 437.262 421.409 435.9 421.345 434.211C421.345 434.154 421.345 434.101 421.345 434.047L421.359 425.719C421.359 425.665 421.359 425.609 421.359 425.555C421.423 423.994 422.373 422.717 423.575 422.54C423.671 422.525 423.771 422.518 423.87 422.518L478.467 422.646C478.467 422.646 478.467 422.664 478.47 422.671C479.338 427.01 481.358 433.009 486.082 437.415L486.086 437.411Z" fill="#FFA412"/>
<path id="Vector_65" d="M534.639 411.259L534.624 419.588C534.624 420.253 534.446 420.868 534.141 421.38C533.82 421.917 533.358 422.34 532.821 422.579C532.657 422.653 532.483 422.707 532.305 422.742C532.252 422.753 532.195 422.764 532.142 422.771C532.113 422.771 532.081 422.778 532.049 422.781C532.021 422.785 531.989 422.788 531.957 422.788C531.907 422.788 531.857 422.792 531.807 422.792L415.632 422.515C414.135 422.511 412.904 421.153 412.829 419.463C412.829 419.41 412.829 419.353 412.829 419.3L412.844 410.971C412.844 410.914 412.844 410.861 412.844 410.808C412.844 410.762 412.847 410.719 412.851 410.673C412.965 409.314 413.833 408.194 414.964 407.867C414.992 407.856 415.021 407.853 415.049 407.842C415.245 407.792 415.447 407.767 415.657 407.767L531.832 408.045C531.917 408.045 532.003 408.052 532.085 408.059C532.124 408.066 532.159 408.07 532.198 408.073C532.241 408.08 532.284 408.091 532.33 408.098C532.508 408.134 532.679 408.19 532.846 408.265C533.383 408.503 533.845 408.93 534.162 409.471C534.464 409.983 534.642 410.602 534.642 411.263L534.639 411.259Z" fill="#FFB93E"/>
<path id="Vector_66" d="M477.57 422.664L415.33 422.515C413.993 422.515 412.894 421.153 412.829 419.463C412.829 419.41 412.829 419.353 412.829 419.3L412.844 410.971C412.844 410.914 412.844 410.861 412.844 410.808C412.844 410.762 412.847 410.719 412.851 410.673C412.954 409.282 413.761 408.148 414.804 407.846C414.839 407.831 414.875 407.824 414.91 407.817C415.056 407.785 415.202 407.767 415.355 407.767L469.951 407.895C469.958 407.931 469.965 407.963 469.973 408.002C470.848 412.33 472.868 418.265 477.542 422.643C477.549 422.65 477.56 422.657 477.567 422.664H477.57Z" fill="#FFA412"/>
<path id="Vector_67" d="M534.422 396.615L534.407 404.944C534.407 405.609 534.229 406.224 533.924 406.736C533.603 407.277 533.141 407.696 532.6 407.934C532.472 407.991 532.337 408.038 532.198 408.073C532.159 408.084 532.124 408.091 532.088 408.098C531.928 408.13 531.761 408.148 531.594 408.148L415.419 407.874C415.298 407.874 415.174 407.863 415.056 407.846C415.01 407.842 414.964 407.831 414.917 407.821C413.655 407.557 412.68 406.32 412.616 404.823C412.616 404.766 412.616 404.713 412.616 404.659L412.63 396.331C412.63 396.274 412.63 396.22 412.63 396.167C412.709 394.478 413.946 393.127 415.444 393.13L531.619 393.408C531.693 393.408 531.768 393.411 531.839 393.418C531.871 393.418 531.903 393.425 531.935 393.429C531.971 393.432 532.006 393.44 532.038 393.447C532.063 393.447 532.088 393.457 532.113 393.461C532.291 393.496 532.462 393.553 532.629 393.628C532.654 393.639 532.675 393.649 532.704 393.664C532.728 393.674 532.75 393.685 532.775 393.699C532.821 393.724 532.871 393.752 532.917 393.777C532.967 393.809 533.02 393.841 533.07 393.877C533.116 393.909 533.159 393.941 533.202 393.973C533.251 394.012 533.298 394.055 533.344 394.097C533.383 394.129 533.418 394.161 533.454 394.201C533.454 394.201 533.458 394.201 533.461 394.208C533.486 394.229 533.511 394.257 533.532 394.282C533.603 394.357 533.671 394.439 533.735 394.521C533.756 394.546 533.774 394.57 533.792 394.595C533.81 394.624 533.828 394.645 533.845 394.674C533.881 394.727 533.916 394.78 533.948 394.837C534.251 395.349 534.429 395.968 534.425 396.629L534.422 396.615Z" fill="#FFB93E"/>
<path id="Vector_68" d="M477.353 408.02L415.113 407.87C415.063 407.87 415.013 407.87 414.964 407.863C414.91 407.86 414.857 407.853 414.804 407.842C413.608 407.65 412.669 406.377 412.613 404.816C412.613 404.759 412.613 404.705 412.613 404.652L412.627 396.324C412.627 396.267 412.627 396.213 412.627 396.16C412.698 394.471 413.801 393.119 415.138 393.119L469.731 393.248C469.756 393.368 469.78 393.489 469.805 393.61C470.702 397.885 472.711 403.628 477.236 407.91C477.271 407.945 477.311 407.977 477.346 408.013L477.353 408.02Z" fill="#FFA412"/>
<path id="Vector_69" d="M540.451 382.245L540.436 390.573C540.436 391.238 540.259 391.853 539.953 392.366C539.633 392.903 539.17 393.326 538.633 393.564C538.469 393.639 538.295 393.692 538.117 393.728C537.957 393.76 537.79 393.777 537.623 393.777L421.448 393.5C420.982 393.5 420.541 393.365 420.153 393.134C419.332 392.639 418.748 391.693 418.656 390.591C418.652 390.545 418.649 390.495 418.645 390.449C418.645 390.395 418.645 390.339 418.645 390.285L418.659 381.957C418.659 381.903 418.659 381.846 418.659 381.793C418.738 380.104 419.976 378.753 421.473 378.756L537.648 379.03C537.818 379.03 537.982 379.048 538.142 379.083C538.32 379.119 538.491 379.176 538.658 379.25C539.195 379.489 539.657 379.915 539.974 380.456C540.276 380.968 540.454 381.587 540.454 382.248L540.451 382.245Z" fill="#FFB93E"/>
<path id="Vector_70" d="M483.382 393.649L421.142 393.504C420.726 393.504 420.335 393.368 419.986 393.137C419.253 392.643 418.731 391.701 418.649 390.598C418.645 390.552 418.642 390.502 418.638 390.456C418.638 390.403 418.638 390.346 418.638 390.292L418.652 381.964C418.652 381.91 418.652 381.854 418.652 381.8C418.723 380.111 419.83 378.76 421.164 378.76L475.76 378.888C476.599 383.112 478.534 388.916 482.995 393.29C483.119 393.411 483.247 393.536 483.375 393.653L483.382 393.649Z" fill="#FFA412"/>
<path id="Vector_71" d="M549.969 367.519L549.955 375.847C549.955 376.512 549.777 377.127 549.471 377.64C549.151 378.177 548.689 378.6 548.152 378.838C547.988 378.913 547.814 378.966 547.636 379.002C547.476 379.034 547.309 379.051 547.141 379.051L430.967 378.774C429.469 378.774 428.238 377.412 428.164 375.723C428.164 375.669 428.164 375.612 428.164 375.559L428.178 367.231C428.178 367.177 428.178 367.12 428.178 367.067C428.249 365.506 429.313 364.229 430.657 364.051C430.767 364.037 430.878 364.03 430.988 364.03L547.163 364.308C547.333 364.308 547.497 364.325 547.657 364.361C547.835 364.396 548.006 364.453 548.169 364.528C548.706 364.766 549.169 365.193 549.485 365.733C549.788 366.246 549.966 366.864 549.962 367.526L549.969 367.519Z" fill="#FFB93E"/>
<path id="Vector_72" d="M492.901 378.923L430.661 378.774C429.323 378.774 428.224 377.412 428.16 375.723C428.16 375.669 428.16 375.612 428.16 375.559L428.174 367.231C428.174 367.177 428.174 367.12 428.174 367.067C428.238 365.506 429.188 364.229 430.39 364.051C430.486 364.037 430.586 364.03 430.686 364.03L485.282 364.158C485.282 364.158 485.282 364.172 485.285 364.183C486.153 368.525 488.174 374.521 492.897 378.927L492.901 378.923Z" fill="#FFA412"/>
<path id="Vector_73" d="M534.745 352.757L534.731 361.086C534.731 361.751 534.553 362.366 534.247 362.878C533.927 363.415 533.465 363.838 532.928 364.076C532.764 364.151 532.59 364.204 532.412 364.24C532.359 364.251 532.302 364.261 532.248 364.268C532.206 364.275 532.159 364.279 532.117 364.283C532.095 364.283 532.074 364.283 532.053 364.29C532.006 364.29 531.964 364.29 531.917 364.29L415.743 364.012C414.245 364.012 413.014 362.65 412.94 360.961C412.94 360.908 412.94 360.851 412.94 360.798L412.954 352.469C412.954 352.416 412.954 352.359 412.954 352.305C413.032 350.616 414.27 349.265 415.768 349.269L531.942 349.546C531.992 349.546 532.042 349.546 532.092 349.553C532.209 349.56 532.326 349.578 532.437 349.599C532.615 349.635 532.785 349.692 532.953 349.766C533.038 349.805 533.12 349.845 533.194 349.891C533.244 349.919 533.294 349.948 533.34 349.98C533.344 349.98 533.351 349.983 533.354 349.99C533.401 350.022 533.45 350.058 533.497 350.094C533.507 350.097 533.515 350.104 533.522 350.111C533.564 350.143 533.607 350.179 533.646 350.218C533.746 350.303 533.838 350.396 533.927 350.499C533.956 350.527 533.98 350.559 534.005 350.591C534.009 350.595 534.016 350.602 534.02 350.609C534.037 350.627 534.052 350.648 534.069 350.67C534.069 350.67 534.077 350.677 534.08 350.684C534.109 350.719 534.137 350.759 534.162 350.801C534.201 350.858 534.237 350.915 534.272 350.975C534.575 351.488 534.752 352.106 534.749 352.768L534.745 352.757Z" fill="#FFB93E"/>
<path id="Vector_74" d="M477.677 364.162L415.437 364.012C414.099 364.012 413 362.65 412.936 360.961C412.936 360.908 412.936 360.851 412.936 360.798L412.95 352.469C412.95 352.416 412.95 352.359 412.95 352.305C413.022 350.616 414.128 349.265 415.462 349.265L470.058 349.397C470.079 349.507 470.104 349.621 470.129 349.738C471.025 354.044 473.056 359.845 477.648 364.14C477.656 364.147 477.666 364.158 477.673 364.165L477.677 364.162Z" fill="#FFA412"/>
<path id="Vector_75" d="M543.31 338.369L543.296 346.697C543.296 347.362 543.118 347.978 542.812 348.49C542.492 349.027 542.03 349.45 541.493 349.688C541.329 349.763 541.155 349.816 540.977 349.852C540.813 349.884 540.65 349.902 540.483 349.902L424.308 349.624C423.856 349.624 423.429 349.5 423.052 349.279C422.206 348.792 421.601 347.828 421.512 346.701C421.512 346.658 421.505 346.616 421.505 346.569C421.505 346.516 421.505 346.459 421.505 346.406L421.519 338.077C421.519 338.02 421.519 337.967 421.519 337.914C421.59 336.349 422.654 335.076 423.998 334.898C424.109 334.884 424.219 334.877 424.333 334.877L540.508 335.154C540.678 335.154 540.842 335.172 541.002 335.207C541.18 335.243 541.351 335.3 541.518 335.375C542.055 335.613 542.514 336.04 542.834 336.58C543.136 337.092 543.314 337.711 543.31 338.372V338.369Z" fill="#FFB93E"/>
<path id="Vector_76" d="M486.242 349.773L424.002 349.624C423.6 349.624 423.219 349.5 422.882 349.279C422.127 348.792 421.587 347.828 421.509 346.705C421.509 346.662 421.501 346.619 421.501 346.573C421.501 346.52 421.501 346.463 421.501 346.409L421.516 338.081C421.516 338.024 421.516 337.971 421.516 337.917C421.58 336.356 422.529 335.079 423.732 334.902C423.828 334.887 423.927 334.88 424.027 334.88L478.623 335.008C478.623 335.008 478.623 335.026 478.627 335.033C479.47 339.265 481.412 345.065 485.883 349.436C486 349.553 486.118 349.663 486.239 349.777L486.242 349.773Z" fill="#FFA412"/>
<path id="Vector_77" d="M534.799 323.625L534.784 331.954C534.784 332.619 534.607 333.234 534.301 333.746C533.98 334.286 533.518 334.706 532.981 334.944C532.817 335.019 532.643 335.072 532.465 335.108C532.412 335.119 532.355 335.129 532.302 335.136C532.273 335.136 532.241 335.143 532.209 335.147C532.181 335.147 532.149 335.151 532.117 335.154C532.067 335.154 532.017 335.158 531.967 335.158L415.792 334.88C414.295 334.88 413.064 333.518 412.99 331.829C412.99 331.772 412.99 331.719 412.99 331.666L413.004 323.337C413.004 323.284 413.004 323.227 413.004 323.173C413.082 321.484 414.32 320.133 415.817 320.136L531.992 320.414C532.163 320.414 532.326 320.432 532.487 320.467C532.664 320.503 532.835 320.56 533.002 320.634C533.539 320.873 534.002 321.299 534.318 321.84C534.621 322.352 534.799 322.971 534.799 323.632V323.625Z" fill="#FFB93E"/>
<path id="Vector_78" d="M477.73 335.026L415.49 334.88C414.153 334.88 413.054 333.518 412.99 331.829C412.99 331.772 412.99 331.719 412.99 331.666L413.004 323.337C413.004 323.284 413.004 323.227 413.004 323.173C413.075 321.484 414.178 320.133 415.515 320.136L470.111 320.265C470.972 324.603 472.989 330.595 477.702 335.008C477.709 335.015 477.72 335.023 477.727 335.03L477.73 335.026Z" fill="#FFA412"/>
<g id="Group_10">
<path id="Vector_79" d="M524.932 437.535L524.896 452.283L526.215 452.286L526.251 437.539L524.932 437.535Z" fill="#FFA412"/>
<path id="Vector_80" d="M520.419 437.49L520.388 452.237L521.708 452.24L521.739 437.493L520.419 437.49Z" fill="#FFA412"/>
<path id="Vector_81" d="M515.051 437.465L515.02 452.212L516.34 452.215L516.371 437.468L515.051 437.465Z" fill="#FFA412"/>
<path id="Vector_82" d="M506.886 437.492L506.85 452.24L508.169 452.243L508.205 437.496L506.886 437.492Z" fill="#FFA412"/>
<path id="Vector_83" d="M498.2 437.471L498.164 452.218L499.483 452.222L499.519 437.474L498.2 437.471Z" fill="#FFA412"/>
<path id="Vector_84" d="M484.878 437.439L484.842 452.186L486.162 452.189L486.198 437.442L484.878 437.439Z" fill="#FFA412"/>
<path id="Vector_85" d="M472.371 437.376L472.34 452.123L473.659 452.126L473.69 437.379L472.371 437.376Z" fill="#FFA412"/>
<path id="Vector_86" d="M461.277 437.385L461.241 452.133L462.56 452.136L462.597 437.389L461.277 437.385Z" fill="#FFA412"/>
<path id="Vector_87" d="M529.189 437.546L529.153 452.293L530.473 452.296L530.509 437.549L529.189 437.546Z" fill="#FFA412"/>
<path id="Vector_88" d="M531.957 437.518L531.927 452.266L533.246 452.269L533.277 437.521L531.957 437.518Z" fill="#FFA412"/>
<path id="Vector_89" d="M534.716 437.56L534.68 452.308L536 452.311L536.036 437.563L534.716 437.56Z" fill="#FFA412"/>
<path id="Vector_90" d="M536.712 437.529L536.687 452.276H537.513C537.683 452.276 537.847 452.262 538.007 452.226L538.035 437.582C537.875 437.547 537.708 437.529 537.541 437.529H536.716H536.712Z" fill="#FFA412"/>
<path id="Vector_91" d="M538.548 437.749L538.523 452.066C539.063 451.828 539.522 451.408 539.842 450.868L539.864 438.955C539.544 438.414 539.085 437.991 538.548 437.749Z" fill="#FFA412"/>
<path id="Vector_92" d="M487.692 422.698L487.656 437.446L488.975 437.449L489.011 422.701L487.692 422.698Z" fill="#FFA412"/>
<path id="Vector_93" d="M475.149 422.602L475.116 437.349L476.435 437.352L476.469 422.605L475.149 422.602Z" fill="#FFA412"/>
<path id="Vector_94" d="M464.083 422.645L464.047 437.392L465.367 437.395L465.403 422.648L464.083 422.645Z" fill="#FFA412"/>
<path id="Vector_95" d="M533.248 437.522L533.276 422.774H532.117C532.177 422.764 532.241 422.756 532.302 422.742L532.33 408.098C532.248 408.08 532.166 408.07 532.085 408.059L532.11 393.767H532.625L532.6 407.934C533.141 407.7 533.6 407.277 533.92 406.736L533.941 394.823C533.678 394.378 533.315 394.016 532.896 393.767H533.358L533.386 379.019H532.067L532.042 393.44C531.903 393.415 531.765 393.4 531.619 393.4H530.793L530.765 408.148H531.01L530.982 422.792H531.807C531.857 422.792 531.907 422.792 531.957 422.788L531.928 437.522H533.248Z" fill="#FFA412"/>
<path id="Vector_96" d="M534.809 422.809L534.773 437.556L536.092 437.559L536.128 422.812L534.809 422.809Z" fill="#FFA412"/>
<path id="Vector_97" d="M537.489 422.788L537.45 437.535L538.77 437.539L538.808 422.792L537.489 422.788Z" fill="#FFA412"/>
<path id="Vector_98" d="M539.522 422.788L539.494 437.536H540.319C540.49 437.536 540.653 437.522 540.813 437.486L540.838 422.842C540.678 422.806 540.511 422.788 540.344 422.788H539.519H539.522Z" fill="#FFA412"/>
<path id="Vector_99" d="M541.358 423.009L541.333 437.326C541.873 437.088 542.332 436.668 542.652 436.128L542.674 424.215C542.354 423.674 541.895 423.251 541.358 423.009Z" fill="#FFA412"/>
<path id="Vector_100" d="M520.482 422.767L520.507 408.016H520.265L520.29 393.372H518.97L518.942 408.119H519.187L519.162 422.739L517.871 422.735L517.846 437.486L519.166 437.49L519.194 422.764L520.482 422.767Z" fill="#FFA412"/>
<path id="Vector_101" d="M510.679 407.995H510.433L510.462 393.351L509.142 393.347L509.114 408.094H509.359L509.331 422.739H509.658L509.629 437.465L510.953 437.468L510.977 422.721H510.654L510.679 407.995Z" fill="#FFA412"/>
<path id="Vector_102" d="M532.842 408.262L532.817 422.579C533.358 422.344 533.817 421.917 534.137 421.38L534.158 409.467C533.838 408.927 533.379 408.503 532.842 408.262Z" fill="#FFA412"/>
<path id="Vector_103" d="M502.245 393.329H500.925L500.897 408.077H501.142L501.118 422.696H500.968L500.943 437.443L502.263 437.447L502.291 422.721L502.437 422.724L502.462 407.974H502.22L502.245 393.329Z" fill="#FFA412"/>
<path id="Vector_104" d="M493.559 393.311L492.239 393.308L492.211 408.055H492.456L492.428 422.7L493.747 422.703L493.776 407.952H493.53L493.559 393.311Z" fill="#FFA412"/>
<path id="Vector_105" d="M480.242 393.279L478.918 393.276L478.893 408.023H479.135L479.11 422.668L480.43 422.671L480.458 407.924L480.213 407.92L480.242 393.279Z" fill="#FFA412"/>
<path id="Vector_106" d="M467.771 393.248L466.451 393.244L466.423 407.995H466.668L466.64 422.639L467.963 422.643L467.988 407.892H467.742L467.771 393.248Z" fill="#FFA412"/>
<path id="Vector_107" d="M456.637 393.223L455.314 393.219L455.289 407.966L455.531 407.97L455.506 422.611L456.826 422.614L456.854 407.867H456.609L456.637 393.223Z" fill="#FFA412"/>
<path id="Vector_108" d="M524.544 393.383L523.224 393.379L523.199 408.13H523.441L523.416 422.749H523.231L523.206 437.497L524.526 437.5L524.551 422.774H524.736L524.761 408.027H524.519L524.544 393.383Z" fill="#FFA412"/>
<path id="Vector_109" d="M527.354 393.39L526.294 393.386L526.319 379.002H524.999L524.971 393.749L526.034 393.752L526.009 408.137H526.251L526.226 422.778L527.546 422.781L527.574 408.034H527.329L527.354 393.39Z" fill="#FFA412"/>
<path id="Vector_110" d="M520.571 379.018L520.535 393.765L521.855 393.769L521.891 379.021L520.571 379.018Z" fill="#FFA412"/>
<path id="Vector_111" d="M515.143 393.361H514.499L514.474 408.109H514.719L514.691 422.753L516.011 422.756L516.039 408.006H515.794L515.819 393.728H516.462L516.491 378.98L515.171 378.977L515.143 393.361Z" fill="#FFA412"/>
<path id="Vector_112" d="M506.951 378.95L506.912 393.698L508.232 393.701L508.27 378.954L506.951 378.95Z" fill="#FFA412"/>
<path id="Vector_113" d="M498.307 378.964L498.271 393.712L499.59 393.715L499.626 378.968L498.307 378.964Z" fill="#FFA412"/>
<path id="Vector_114" d="M484.918 378.879L484.884 393.626L486.204 393.629L486.237 378.882L484.918 378.879Z" fill="#FFA412"/>
<path id="Vector_115" d="M472.467 378.861L472.436 393.609L473.756 393.611L473.787 378.864L472.467 378.861Z" fill="#FFA412"/>
<path id="Vector_116" d="M461.384 378.879L461.348 393.626L462.668 393.629L462.704 378.882L461.384 378.879Z" fill="#FFA412"/>
<path id="Vector_117" d="M529.228 393.393H528.748L528.723 408.141L528.965 408.144L528.94 422.764L527.702 422.76L527.674 437.507L528.994 437.511L529.022 422.785L530.26 422.788L530.288 408.041H530.043L530.068 393.76L530.548 393.763L530.573 379.012L529.253 379.009L529.228 393.393Z" fill="#FFA412"/>
<path id="Vector_118" d="M534.82 379.054L534.784 393.801L536.103 393.804L536.139 379.057L534.82 379.054Z" fill="#FFA412"/>
<path id="Vector_119" d="M538.114 393.728L538.142 379.083C537.982 379.048 537.815 379.03 537.648 379.03H536.823L536.794 393.777H537.619C537.79 393.777 537.954 393.763 538.114 393.728Z" fill="#FFA412"/>
<path id="Vector_120" d="M539.949 392.366L539.97 380.452C539.65 379.912 539.191 379.489 538.654 379.247L538.629 393.564C539.17 393.326 539.629 392.906 539.949 392.366Z" fill="#FFA412"/>
<path id="Vector_121" d="M534.563 364.302L534.527 379.05L535.847 379.053L535.883 364.305L534.563 364.302Z" fill="#FFA412"/>
<path id="Vector_122" d="M516.517 364.259L516.481 379.007L517.801 379.01L517.837 364.263L516.517 364.259Z" fill="#FFA412"/>
<path id="Vector_123" d="M507.827 364.242L507.791 378.989L509.111 378.992L509.147 364.245L507.827 364.242Z" fill="#FFA412"/>
<path id="Vector_124" d="M494.506 364.206L494.47 378.953L495.789 378.956L495.825 364.209L494.506 364.206Z" fill="#FFA412"/>
<path id="Vector_125" d="M482.037 364.177L482.001 378.925L483.32 378.928L483.356 364.181L482.037 364.177Z" fill="#FFA412"/>
<path id="Vector_126" d="M470.863 364.122L470.832 378.869L472.152 378.872L472.183 364.125L470.863 364.122Z" fill="#FFA412"/>
<path id="Vector_127" d="M538.817 364.313L538.781 379.06L540.1 379.064L540.136 364.316L538.817 364.313Z" fill="#FFA412"/>
<path id="Vector_128" d="M541.627 364.32L541.591 379.067L542.91 379.071L542.946 364.323L541.627 364.32Z" fill="#FFA412"/>
<path id="Vector_129" d="M544.262 364.269L544.229 379.017L545.548 379.02L545.582 364.272L544.262 364.269Z" fill="#FFA412"/>
<path id="Vector_130" d="M546.341 364.3L546.316 379.048H547.141C547.312 379.048 547.476 379.034 547.636 378.998L547.664 364.354C547.504 364.322 547.337 364.3 547.17 364.3H546.345H546.341Z" fill="#FFA412"/>
<path id="Vector_131" d="M548.176 364.521L548.152 378.838C548.692 378.6 549.151 378.177 549.471 377.64L549.493 365.726C549.172 365.186 548.714 364.763 548.176 364.521Z" fill="#FFA412"/>
<path id="Vector_132" d="M519.269 364.261L520.588 364.265L520.613 349.514L519.326 349.51L519.351 335.126L520.642 335.129L520.667 320.382L519.347 320.378L519.319 335.104L518.031 335.101L518.006 349.848L519.294 349.852L519.269 364.261Z" fill="#FFA412"/>
<path id="Vector_133" d="M514.818 349.492L514.779 364.24L516.099 364.243L516.138 349.496L514.818 349.492Z" fill="#FFA412"/>
<path id="Vector_134" d="M492.602 349.476L492.566 364.223L493.885 364.226L493.921 349.479L492.602 349.476Z" fill="#FFA412"/>
<path id="Vector_135" d="M479.214 349.388L479.18 364.136L480.5 364.139L480.533 349.391L479.214 349.388Z" fill="#FFA412"/>
<path id="Vector_136" d="M466.811 349.415L466.775 364.163L468.095 364.166L468.131 349.418L466.811 349.415Z" fill="#FFA412"/>
<path id="Vector_137" d="M455.609 349.335L455.576 364.082L456.895 364.085L456.929 349.338L455.609 349.335Z" fill="#FFA412"/>
<path id="Vector_138" d="M523.523 364.272H524.69L524.665 378.998L525.984 379.002L526.013 364.254L524.843 364.251L524.867 349.525H524.686L524.711 335.14H524.896L524.921 320.393L523.601 320.389L523.573 335.115L523.391 335.111L523.366 349.862H523.548L523.523 364.272Z" fill="#FFA412"/>
<path id="Vector_139" d="M526.404 349.563L526.376 364.31L527.695 364.313L527.724 349.565L526.404 349.563Z" fill="#FFA412"/>
<path id="Vector_140" d="M533.177 349.884H533.408L533.436 335.136H532.277C532.337 335.126 532.401 335.119 532.462 335.104L532.49 320.46C532.33 320.425 532.163 320.407 531.996 320.407H531.17L531.142 335.154H531.967C532.017 335.154 532.067 335.154 532.117 335.147L532.092 349.549C532.042 349.549 531.992 349.542 531.942 349.542H531.117L531.089 364.265H530.367L530.395 349.539H529.157L529.182 335.151H530.42L530.448 320.407H529.129L529.1 335.129H527.862L527.834 349.873H529.072L529.047 364.283H530.05L530.022 379.012H531.341L531.37 364.29H531.91C532.081 364.29 532.245 364.275 532.405 364.24L532.43 349.884H532.945L532.92 364.076C533.461 363.842 533.92 363.418 534.24 362.878L534.261 350.965C533.988 350.502 533.611 350.133 533.173 349.884H533.177Z" fill="#FFA412"/>
<path id="Vector_141" d="M487.808 335.029L487.778 349.776L489.097 349.779L489.128 335.031L487.808 335.029Z" fill="#FFA412"/>
<path id="Vector_142" d="M475.38 335.024L475.344 349.771L476.663 349.774L476.699 335.027L475.38 335.024Z" fill="#FFA412"/>
<path id="Vector_143" d="M464.24 334.999L464.204 349.746L465.524 349.749L465.56 335.002L464.24 334.999Z" fill="#FFA412"/>
<path id="Vector_144" d="M534.893 335.117L534.86 349.865L536.179 349.868L536.213 335.12L534.893 335.117Z" fill="#FFA412"/>
<path id="Vector_145" d="M537.683 335.174L537.647 349.921L538.967 349.924L539.003 335.177L537.683 335.174Z" fill="#FFA412"/>
<path id="Vector_146" d="M539.682 335.151L539.654 349.898H540.479C540.65 349.898 540.813 349.884 540.974 349.848L540.998 335.204C540.838 335.168 540.671 335.151 540.504 335.151H539.679H539.682Z" fill="#FFA412"/>
<path id="Vector_147" d="M542.813 348.49L542.834 336.577C542.514 336.036 542.055 335.613 541.518 335.371L541.493 349.688C542.034 349.45 542.492 349.03 542.813 348.49Z" fill="#FFA412"/>
<path id="Vector_148" d="M514.916 320.39L514.88 335.138L516.2 335.141L516.236 320.393L514.916 320.39Z" fill="#FFA412"/>
<path id="Vector_149" d="M510.839 320.357L509.519 320.353L509.491 335.104H509.818L509.789 349.489H509.466L509.437 364.236L510.757 364.24L510.785 349.83L511.109 349.834L511.138 335.083H510.81L510.839 320.357Z" fill="#FFA412"/>
<path id="Vector_150" d="M501.278 335.062H501.128L501.103 349.809H501.249L501.221 364.219L502.544 364.222L502.569 349.471H502.423L502.451 335.087H502.597L502.622 320.339L501.302 320.336L501.278 335.062Z" fill="#FFA412"/>
<path id="Vector_151" d="M492.655 320.34L492.619 335.088L493.939 335.091L493.975 320.343L492.655 320.34Z" fill="#FFA412"/>
<path id="Vector_152" d="M479.338 320.308L479.301 335.055L480.621 335.059L480.657 320.311L479.338 320.308Z" fill="#FFA412"/>
<path id="Vector_153" d="M466.833 320.255L466.795 335.002L468.114 335.006L468.153 320.258L466.833 320.255Z" fill="#FFA412"/>
<path id="Vector_154" d="M455.693 320.229L455.662 334.976L456.981 334.979L457.012 320.232L455.693 320.229Z" fill="#FFA412"/>
<path id="Vector_155" d="M526.405 320.391L526.366 335.138L527.686 335.142L527.725 320.394L526.405 320.391Z" fill="#FFA412"/>
<path id="Vector_156" d="M533.002 320.627L532.977 334.944C533.518 334.706 533.977 334.286 534.297 333.746L534.318 321.833C533.998 321.292 533.539 320.869 533.002 320.627Z" fill="#FFA412"/>
</g>
</g>
<g id="Group_11">
<path id="Vector_157" d="M571.709 359.948L579.911 361.402C580.566 361.519 581.142 361.8 581.59 362.188C582.067 362.597 582.401 363.123 582.543 363.696C582.586 363.87 582.611 364.051 582.614 364.229C582.618 364.393 582.607 364.56 582.579 364.727L562.201 479.072C561.938 480.548 560.387 481.522 558.711 481.301C558.658 481.294 558.601 481.287 558.548 481.277L550.345 479.819C550.292 479.808 550.239 479.797 550.182 479.787C548.531 479.417 547.414 477.966 547.674 476.49L568.052 362.145C568.066 362.071 568.081 361.999 568.102 361.928C568.109 361.896 568.12 361.868 568.13 361.836C568.141 361.804 568.152 361.768 568.166 361.736C568.173 361.711 568.184 361.69 568.194 361.665C568.262 361.498 568.344 361.338 568.447 361.189C568.461 361.167 568.475 361.146 568.493 361.121C568.507 361.1 568.525 361.078 568.539 361.057C568.571 361.014 568.607 360.972 568.643 360.933C568.664 360.908 568.685 360.886 568.707 360.862C568.728 360.84 568.746 360.819 568.767 360.801C568.806 360.762 568.845 360.726 568.884 360.687C568.931 360.645 568.98 360.605 569.03 360.566C569.069 360.534 569.109 360.506 569.148 360.477C569.148 360.477 569.151 360.474 569.155 360.474C569.183 360.456 569.212 360.435 569.24 360.417C569.325 360.36 569.418 360.307 569.51 360.257C569.539 360.243 569.567 360.229 569.592 360.214C569.621 360.2 569.649 360.189 569.678 360.175C569.735 360.15 569.795 360.125 569.855 360.1C570.414 359.891 571.051 359.823 571.705 359.94L571.709 359.948Z" fill="#FFB93E"/>
<path id="Vector_158" d="M573.067 418.116L562.151 479.374C561.916 480.69 560.39 481.536 558.711 481.309C558.658 481.301 558.601 481.294 558.548 481.284L550.345 479.826C550.292 479.815 550.239 479.804 550.182 479.794C548.531 479.431 547.39 478.112 547.624 476.792L557.2 423.059C557.324 423.059 557.445 423.052 557.573 423.048C561.977 422.902 568.045 421.903 573.067 418.112V418.116Z" fill="#FFA412"/>
<g id="Group_12">
<path id="Vector_159" d="M566.061 373.286L565.829 374.584L580.35 377.176L580.582 375.877L566.061 373.286Z" fill="#FFA412"/>
<path id="Vector_160" d="M565.267 377.68L565.036 378.979L579.559 381.563L579.79 380.264L565.267 377.68Z" fill="#FFA412"/>
<path id="Vector_161" d="M564.31 382.936L564.079 384.234L578.601 386.821L578.832 385.522L564.31 382.936Z" fill="#FFA412"/>
<path id="Vector_162" d="M562.869 391.021L562.637 392.319L577.159 394.906L577.391 393.607L562.869 391.021Z" fill="#FFA412"/>
<path id="Vector_163" d="M561.363 399.591L561.132 400.89L575.654 403.474L575.886 402.175L561.363 399.591Z" fill="#FFA412"/>
<path id="Vector_164" d="M559.077 412.754L558.846 414.053L573.368 416.642L573.599 415.343L559.077 412.754Z" fill="#FFA412"/>
<path id="Vector_165" d="M556.841 424.975L556.61 426.274L571.133 428.857L571.364 427.559L556.841 424.975Z" fill="#FFA412"/>
<path id="Vector_166" d="M554.918 435.963L554.686 437.262L569.207 439.853L569.439 438.554L554.918 435.963Z" fill="#FFA412"/>
<path id="Vector_167" d="M566.78 369.074L566.548 370.373L581.071 372.959L581.302 371.661L566.78 369.074Z" fill="#FFA412"/>
<path id="Vector_168" d="M567.345 366.378L567.113 367.677L581.635 370.266L581.866 368.967L567.345 366.378Z" fill="#FFA412"/>
<path id="Vector_169" d="M567.749 363.637L567.517 364.936L582.039 367.522L582.271 366.223L567.749 363.637Z" fill="#FFA412"/>
<path id="Vector_170" d="M567.91 362.963L582.433 365.541L582.579 364.731C582.607 364.563 582.622 364.4 582.614 364.233L568.191 361.672C568.13 361.825 568.084 361.985 568.052 362.152L567.906 362.963H567.91Z" fill="#FFA412"/>
<path id="Vector_171" d="M568.443 361.196L582.543 363.699C582.405 363.127 582.067 362.6 581.59 362.192L569.859 360.108C569.272 360.328 568.774 360.705 568.443 361.196Z" fill="#FFA412"/>
</g>
</g>
<path id="Vector_172" opacity="0.2" d="M617.719 287.683V464.495C617.719 474.808 609.278 483.25 598.963 483.25H417.172C415.596 483.25 414.06 483.055 412.591 482.692C409.443 481.913 406.594 480.352 404.264 478.225C402.599 476.707 401.205 474.9 400.156 472.891C400.099 472.784 400.045 472.678 399.992 472.568C398.903 470.38 398.221 467.959 398.046 465.405C398.014 464.968 398 464.531 398 464.086V288.824C398 278.906 403.126 269.735 411.488 264.397C411.488 264.397 411.495 264.397 411.509 264.387C418.474 259.931 423.091 252.121 423.091 243.242C423.091 240.607 422.686 238.071 421.931 235.685H593.784C593.03 238.071 592.624 240.607 592.624 243.242C592.624 251.759 596.868 259.283 603.356 263.818C603.356 263.818 603.356 263.818 603.363 263.818C603.797 264.12 604.238 264.408 604.689 264.682C612.739 269.586 617.715 278.27 617.715 287.694L617.719 287.683Z" fill="#ED9F4A"/>
<path id="Vector_173" opacity="0.2" d="M617.719 287.683V464.495C617.719 474.363 609.989 482.518 600.286 483.2C599.848 483.232 599.407 483.247 598.963 483.247H518.916C508.37 483.247 499.744 474.619 499.744 464.079V288.817C499.744 278.899 504.87 269.728 513.232 264.39C520.211 259.938 524.839 252.125 524.839 243.231C524.839 240.596 524.433 238.06 523.679 235.674H593.784C593.03 238.06 592.624 240.596 592.624 243.231C592.624 250.212 595.473 256.524 600.076 261.069C601.467 262.445 603.014 263.658 604.693 264.675C612.743 269.575 617.719 278.259 617.719 287.683Z" fill="#ED9F4A"/>
<path id="Vector_174" opacity="0.6" d="M603.36 263.807C597.747 260.446 573.428 248.537 511.589 249.042C440.756 249.621 412.382 263.935 411.514 264.379C418.478 259.924 423.095 252.114 423.095 243.235C423.095 240.599 422.69 238.064 421.936 235.678H593.788C593.034 238.064 592.628 240.599 592.628 243.235C592.628 251.752 596.872 259.276 603.36 263.811V263.807Z" fill="#ED9F4A"/>
<path id="Vector_175" d="M597.68 234.437V242.456C597.68 243.249 597.036 243.893 596.246 243.893H419.478C418.685 243.893 418.041 243.249 418.041 242.456V234.437C418.041 233.647 418.685 233 419.478 233H596.246C597.036 233 597.68 233.647 597.68 234.437Z" fill="#3FA87F"/>
<path id="Vector_176" d="M597.679 234.437V242.456C597.679 243.249 597.036 243.893 596.246 243.893H529.335C528.546 243.893 527.898 243.249 527.898 242.456V234.437C527.898 233.647 528.546 233 529.335 233H596.246C597.036 233 597.679 233.647 597.679 234.437Z" fill="#3FA87F"/>
<g id="Group_13">
<path id="Vector_177" d="M479.744 274.145C479.744 274.145 475.187 280.556 471.011 280.645C466.835 280.734 460.479 277.672 460.479 277.672C460.479 277.672 456.644 269.127 459.245 265.784C459.245 265.784 461.852 264.639 464.58 266.662C465.05 267.011 465.523 267.448 465.992 268.014C466.654 268.81 467.397 269.262 468.183 269.5C471.164 270.407 474.703 268.273 476.026 270.332C476.798 271.527 477.638 272.427 478.331 273.06C479.15 273.789 479.744 274.145 479.744 274.145Z" fill="#F9DDBF"/>
<path id="Vector_178" d="M420.345 320.4C420.345 320.4 436.448 281.388 465.434 280.645C465.434 280.645 492.189 283.618 493.676 320.4H420.342H420.345Z" fill="#F9DDBF"/>
<path id="Vector_179" d="M457.495 281.84C457.495 281.84 469.112 284.422 472.697 282.903C472.697 282.903 473.238 278.046 468.347 278.729C465 279.194 462.816 277.587 461.532 276.933C459.718 276.008 457.011 279.806 457.495 281.84Z" fill="#F1A34F"/>
<path id="Vector_180" d="M467.607 274.518C466.864 275.076 464.584 266.662 464.584 266.662C465.053 267.011 465.526 267.448 465.996 268.014C466.657 268.81 467.401 269.262 468.187 269.5C468.194 269.746 468.329 273.974 467.607 274.514V274.518Z" fill="#E5C1A1"/>
<path id="Vector_181" d="M478.331 273.06C478.168 273.156 472.793 276.374 472.068 276.374C471.342 276.374 476.03 270.332 476.03 270.332C476.802 271.527 477.641 272.427 478.335 273.06H478.331Z" fill="#E5C1A1"/>
<path id="Vector_182" d="M436.078 309.503C435.779 309.251 447.475 292.288 450.694 292.167C453.913 292.043 461.151 295.883 466.391 296.378C471.63 296.872 476.709 295.386 477.698 298.483C478.691 301.58 481.415 312.555 479.744 314.311C478.072 316.068 442.509 314.998 436.078 309.503Z" fill="#E5C1A1"/>
</g>
</g>
<g id="Man">
<path id="Vector_183" d="M693.338 123.437C693.338 123.437 681.774 137.153 667.048 131.417C667.048 131.417 663.879 123.757 663.836 118.11C663.833 117.416 663.822 116.741 663.811 116.101C663.733 109.742 663.52 106.175 663.52 106.175C663.52 106.175 663.523 106.175 663.534 106.175C664.203 105.894 686.046 96.9294 686.028 97.6761C685.655 114.874 693.342 123.444 693.342 123.444L693.338 123.437Z" fill="#FFB27D"/>
<path id="Vector_184" d="M683.834 101.769C681.728 105.674 674.5 113.309 663.811 116.097C663.733 109.739 663.52 106.172 663.52 106.172C663.52 106.172 663.523 106.172 663.534 106.172C664.139 106.008 684.463 100.621 683.834 101.773V101.769Z" fill="#ED975D"/>
<path id="Vector_185" d="M658.942 105.51C658.942 105.51 683.507 111.286 686.868 95.9336C690.229 80.5853 695.661 70.9943 680.12 66.6594C664.58 62.3244 660.24 67.5128 657.871 72.3634C655.502 77.214 652.639 103.615 658.942 105.51Z" fill="#FFB27D"/>
<path id="Vector_186" d="M686.028 100.116C686.363 100.329 691.648 101.954 701.658 82.0184C703.23 78.889 704.301 72.1181 700.637 66.1366C696.973 60.1552 683.987 55.4504 673.195 53.4056C662.403 51.3572 659.813 57.4276 657.274 63.5299C654.606 69.9346 646.902 75.2048 646.902 75.2048C656.207 80.4004 667.415 72.968 671.295 74.1913C675.18 75.4146 676.549 81.5312 676.841 83.4907C677.132 85.4501 677.581 87.0824 682.461 85.3292C687.344 83.5796 684.67 92.2459 683.887 93.9031C683.887 93.9031 683.222 98.3198 686.025 100.112L686.028 100.116Z" fill="#A9453D"/>
<g id="Group_14">
<path id="Vector_187" d="M749.307 482.89H764.183C767.302 482.89 770.766 479.767 771.631 474.053C772.499 468.334 778.908 465.216 780.296 460.539C781.683 455.859 774.576 449.277 774.576 449.277L773.388 447.751L772.154 446.162L760.373 448.932C760.373 448.932 760.081 451.738 759.9 455.308C759.775 457.886 759.704 460.87 759.854 463.484C760.199 469.721 758.107 476.439 752.565 477.651C747.02 478.864 749.314 482.89 749.314 482.89H749.307Z" fill="#2C3A64"/>
<path id="Vector_188" d="M645.76 482.89H685.185C685.562 482.815 685.851 482.733 686.021 482.648C688.653 481.329 687.828 471.254 687.512 468.142C687.451 467.566 687.409 467.228 687.409 467.228C687.409 467.228 673.543 456.144 671.637 464.632C671.576 464.896 671.505 465.159 671.434 465.415C669.026 473.363 658.27 476.969 652.056 477.975C647.307 478.747 646.076 481.513 645.76 482.897V482.89Z" fill="#2C3A64"/>
<path id="Vector_189" d="M653.706 255.58C653.706 255.58 655.812 281.842 658.287 313.414C661.652 356.298 665.697 408.975 666.095 418.957C666.789 436.286 669.563 464.003 669.563 464.003C669.563 464.003 676.144 470.589 689.319 467.812C689.319 467.812 701.057 428.242 704.411 386.376C704.464 385.689 704.514 384.999 704.567 384.306C707.687 341.685 712.539 251.939 712.539 251.939L653.71 255.577L653.706 255.58Z" fill="#2B478B"/>
<path id="Vector_190" d="M653.706 255.58C653.706 255.58 655.812 281.842 658.287 313.414L704.411 386.379C704.464 385.693 704.514 385.003 704.567 384.309C707.687 341.689 712.539 251.942 712.539 251.942L653.71 255.58H653.706Z" fill="#233862"/>
<path id="Vector_191" d="M663.321 258.699C663.321 258.699 701.27 353.815 726.226 398.513C751.182 443.21 758.979 455.685 758.979 455.685C758.979 455.685 773.274 449.967 774.576 446.069C774.576 446.069 765.033 359.776 748.322 338.741C738.878 326.853 727.787 291.184 727.268 278.709C726.749 266.234 723.889 241.548 723.889 241.548L663.324 258.699H663.321Z" fill="#2B478B"/>
</g>
<g id="Group_15">
<path id="Vector_192" d="M749.869 241.416L750.271 247.533C750.271 247.533 746.238 258.4 757.542 263.973C757.542 263.973 762.383 265.925 762.578 262.159C762.774 258.393 762.155 259.808 762.55 254.506C762.945 249.2 760.857 244.19 757.35 242.501L754.469 239.179L749.873 241.416H749.869Z" fill="#FFB27D"/>
<path id="Vector_193" d="M754.287 245.872C750.086 247.22 749.414 246.914 749.414 246.914C749.414 246.914 728.968 209.699 726.898 206.292C724.828 202.885 683.489 164.56 683.489 164.56L694.114 124.955C694.114 124.955 741.13 185.826 746.209 194.56C754.6 208.995 759.516 242.515 759.516 242.515C759.516 242.515 757.592 244.809 754.291 245.868L754.287 245.872Z" fill="#1E3D70"/>
</g>
<path id="Vector_194" d="M645.696 180.111C645.842 188.244 646.315 197.387 646.955 206.676C646.994 207.227 647.033 207.778 647.072 208.33C647.481 214.083 647.922 219.848 648.431 225.47C648.634 227.725 648.851 229.954 649.078 232.142L649.114 232.437C649.132 233.255 649.231 234.144 649.324 234.954C651.398 256.018 653.567 272.657 653.973 272.913C654.453 273.233 654.997 273.393 655.591 273.325C661.115 272.632 677.598 273.884 691.094 270.95C702.479 268.549 712.286 263.994 722.676 257.856C724.056 257.042 727.201 254.883 726.944 253.269C726.692 251.494 726.229 248.934 725.639 245.712C723.594 234.51 720.058 215.239 718.852 192.686C718.618 188.486 718.276 184.336 717.831 180.257C716.672 169.631 714.819 159.539 712.329 150.574C707.701 133.917 700.904 121.161 692.374 116.172C691.261 115.546 685.264 119.362 679.754 122.896C674.667 126.157 669.311 127.057 664.103 126.602L659.518 131.669C653.969 138.12 648.058 146.708 646.443 158.917C646.322 159.82 646.219 160.777 646.13 161.794C645.681 166.765 645.575 173.063 645.699 180.111H645.696Z" fill="#2A4E96"/>
<path id="Vector_195" d="M645.696 180.111C645.842 188.244 646.315 197.387 646.955 206.676C646.994 207.227 647.033 207.778 647.072 208.33C678.63 188.582 683.489 152.445 683.489 152.445C667.962 153.124 655.63 156.694 646.126 161.797C645.678 166.769 645.571 173.067 645.696 180.115V180.111Z" fill="#1E3D70"/>
</g>
<g id="arm-coin">
<path d="M510.771 185.781C538.122 178.761 554.599 150.899 547.572 123.549C540.545 96.1993 512.677 79.7189 485.325 86.7391C457.974 93.7593 441.497 121.622 448.524 148.971C455.551 176.321 483.419 192.801 510.771 185.781Z" fill="#E2810E"/>
<path d="M529.559 172.517C549.636 152.664 549.813 120.294 529.953 100.215C510.094 80.1362 477.72 79.9532 457.643 99.8061C437.566 119.659 437.389 152.03 457.249 172.109C477.108 192.187 509.482 192.37 529.559 172.517Z" fill="#FFB93E"/>
<path d="M469.934 176.854C455.783 168.486 446.477 152.874 447.006 135.314C447.381 122.877 452.576 111.332 461.639 102.805C470.698 94.2772 482.538 89.7895 494.977 90.167C507.415 90.5445 518.963 95.7411 527.494 104.802C536.025 113.862 540.515 125.702 540.14 138.139C539.367 163.813 517.849 184.065 492.172 183.287C484.057 183.041 476.479 180.72 469.939 176.853L469.934 176.854ZM515.824 98.9794C509.542 95.2642 502.389 93.1743 494.894 92.9481C483.199 92.5928 472.067 96.8132 463.543 104.832C455.025 112.85 450.137 123.709 449.784 135.403C449.286 151.911 458.04 166.598 471.343 174.465C477.494 178.102 484.618 180.283 492.249 180.515C516.396 181.247 536.63 162.202 537.355 138.062C537.708 126.368 533.485 115.236 525.463 106.712C522.582 103.653 519.337 101.061 515.82 98.9807L515.824 98.9794Z" fill="#FFA412"/>
<path d="M499.574 150.436C499.724 149.434 499.714 148.536 499.546 147.73C499.378 146.924 499.02 146.167 498.472 145.451C497.923 144.737 497.182 144.039 496.246 143.366C495.311 142.689 494.152 141.995 492.764 141.274C490.382 140.018 488.239 138.751 486.329 137.481C484.421 136.208 482.832 134.834 481.557 133.349C480.284 131.869 479.369 130.221 478.813 128.409C478.257 126.597 478.155 124.525 478.503 122.19C478.803 120.165 479.438 118.372 480.406 116.812C481.374 115.253 482.617 113.955 484.133 112.914C485.652 111.875 487.4 111.107 489.376 110.61C491.351 110.114 493.509 109.931 495.848 110.063L496.989 102.417L503.143 103.338L501.985 111.089C504.146 111.706 506.063 112.587 507.726 113.736C509.39 114.885 510.744 116.256 511.793 117.851C512.838 119.445 513.559 121.251 513.951 123.272C514.343 125.292 514.364 127.494 514.006 129.873L502.889 128.211C503.316 125.352 502.999 123.12 501.942 121.512C500.883 119.906 499.293 118.941 497.162 118.623C496.009 118.449 494.989 118.462 494.108 118.66C493.226 118.857 492.474 119.193 491.852 119.672C491.23 120.151 490.733 120.754 490.363 121.477C489.993 122.2 489.742 123.002 489.608 123.886C489.476 124.766 489.484 125.584 489.635 126.335C489.784 127.088 490.127 127.816 490.666 128.519C491.202 129.22 491.952 129.915 492.911 130.606C493.87 131.298 495.077 132.044 496.529 132.845C498.876 134.146 501 135.439 502.891 136.719C504.783 137.999 506.366 139.39 507.637 140.881C508.909 142.372 509.822 144.028 510.379 145.84C510.935 147.652 511.039 149.713 510.693 152.025C510.379 154.12 509.732 155.947 508.754 157.505C507.773 159.065 506.525 160.351 505.012 161.365C503.497 162.382 501.741 163.116 499.747 163.573C497.754 164.03 495.583 164.193 493.244 164.061L492.183 171.172L486.067 170.257L487.123 163.181C485.026 162.647 483.039 161.877 481.158 160.864C479.278 159.851 477.666 158.559 476.329 156.984C474.992 155.408 474.013 153.528 473.397 151.341C472.781 149.155 472.685 146.632 473.112 143.773L484.232 145.437C483.98 147.127 484.004 148.575 484.31 149.776C484.616 150.978 485.115 151.979 485.808 152.777C486.502 153.576 487.334 154.188 488.307 154.61C489.279 155.036 490.293 155.326 491.344 155.485C492.548 155.664 493.632 155.669 494.587 155.494C495.545 155.321 496.372 155.004 497.068 154.548C497.766 154.093 498.324 153.514 498.742 152.807C499.16 152.1 499.437 151.31 499.569 150.429L499.574 150.436Z" fill="#FFA412"/>
<path d="M552.493 136.491C551.422 134.102 548.937 128.773 548.343 129.281C547.915 129.648 547.679 130.558 547.698 131.664C545.73 129.228 543.53 127.092 536.78 124.67C535.427 124.184 533.919 124.226 532.637 124.869C531.451 125.464 530.508 126.535 531.486 128.41C533.442 132.166 533.228 130.482 535.873 135.826C538.519 141.171 543.361 145.001 547.668 144.896L552.306 146.688L556.935 140.056C556.935 140.056 554.699 138.345 552.496 136.493L552.493 136.491Z" fill="#FFB27D"/>
<path d="M551.167 141.02C553.27 136.827 555.752 137.389 555.752 137.389C555.752 137.389 601.093 154.187 605.222 155.15C609.351 156.113 657.428 142.758 657.428 142.758C657.428 142.758 676.447 136.641 684.112 145.007C690.77 152.279 690.199 160.485 687.712 167.157C684.751 175.107 677.158 180.379 668.671 180.516C649.626 180.822 611.66 181.16 603.929 179.195C586.722 174.82 549.652 147.565 549.652 147.565C549.652 147.565 549.51 144.312 551.159 141.019L551.167 141.02Z" fill="#2A4E96"/>
</g>
<g id="Girl-Coin">
<path id="Vector_196" opacity="0.5" d="M420.646 471.826C419.714 472.317 418.775 472.779 417.832 473.228C416.932 473.747 416.018 474.259 415.086 474.746C410.789 477.004 406.361 478.804 401.854 480.162C400.189 478.644 398.795 476.837 397.746 474.828C397.027 475.212 396.312 475.578 395.59 475.937V342.535C398.902 342.976 402.181 343.638 405.393 344.505C423.42 349.377 439.473 360.842 449.237 377.709C468.633 411.219 455.831 453.359 420.646 471.83V471.826Z" fill="#E2810E"/>
<g id="Group_16">
<path id="Vector_197" d="M432.835 372.45C413.439 337.272 369.194 324.477 334.008 343.869C298.822 363.261 286.024 407.496 305.417 442.673C324.813 477.851 369.059 490.646 404.244 471.257C439.43 451.866 452.228 407.631 432.832 372.453L432.835 372.45Z" fill="#E2810E"/>
<path id="Vector_198" d="M401.424 472.73C400.527 473.277 399.617 473.804 398.688 474.316C398.375 474.49 398.062 474.661 397.746 474.824C397.027 475.208 396.312 475.575 395.59 475.934C360.949 492.943 318.692 479.888 299.861 445.735C281.898 413.157 291.552 372.809 321.029 351.621C323.38 349.932 325.852 348.364 328.452 346.931C329.384 346.415 330.326 345.924 331.269 345.458C332.187 345 333.112 344.566 334.04 344.153C336.886 342.884 339.781 341.813 342.705 340.939C347.048 339.63 351.459 338.748 355.876 338.282C369.581 336.831 383.368 339.335 395.59 345.313C408.562 351.653 419.778 361.909 427.279 375.511C446.163 409.764 434.528 452.598 401.424 472.73Z" fill="#FFB93E"/>
<path id="Vector_199" d="M364.082 477.669C357.897 477.669 351.676 476.794 345.568 475.03C328.562 470.112 314.487 458.868 305.943 443.366C297.396 427.865 295.4 409.964 300.32 392.962C305.239 375.96 316.486 361.888 331.991 353.346C347.496 344.8 365.398 342.805 382.408 347.724C399.414 352.642 413.489 363.886 422.036 379.388C430.584 394.889 432.579 412.787 427.66 429.793C422.741 446.795 411.493 460.866 395.988 469.408C386.05 474.885 375.127 477.673 364.086 477.673L364.082 477.669ZM309.404 441.457C317.44 456.034 330.675 466.606 346.667 471.233C362.659 475.859 379.495 473.981 394.075 465.945C408.655 457.911 419.23 444.679 423.857 428.69C428.485 412.702 426.607 395.87 418.568 381.294C410.533 366.717 397.297 356.145 381.305 351.518C365.313 346.895 348.478 348.769 333.898 356.806C319.318 364.839 308.743 378.072 304.115 394.06C299.487 410.049 301.365 426.88 309.404 441.457Z" fill="#FFA412"/>
<path id="Vector_200" d="M396.042 417.705C395.9 417.346 395.747 417.001 395.59 416.66C394.409 414.067 392.94 411.966 391.176 410.358C389.184 408.541 386.868 407.179 384.229 406.272C381.59 405.365 378.648 404.811 375.404 404.615C372.157 404.416 368.625 404.37 364.804 404.476C362.443 404.547 360.426 404.505 358.75 404.355C357.079 404.203 355.656 403.893 354.489 403.424C353.322 402.954 352.373 402.314 351.643 401.496C350.914 400.686 350.313 399.69 349.837 398.516C349.36 397.343 349.086 396.176 349.015 395.021C348.944 393.868 349.118 392.773 349.531 391.731C349.947 390.696 350.623 389.736 351.558 388.858C352.494 387.976 353.731 387.225 355.268 386.6C358.107 385.447 360.757 385.472 363.214 386.674C365.672 387.876 367.675 390.383 369.222 394.192L384.044 388.175C382.753 385.003 381.138 382.321 379.192 380.131C377.25 377.944 375.059 376.255 372.623 375.06C370.19 373.869 367.536 373.168 364.662 372.965C361.795 372.763 358.811 373.068 355.716 373.879L351.519 363.545L343.317 366.874L347.453 377.065C344.494 378.602 341.983 380.387 339.923 382.425C337.864 384.466 336.281 386.671 335.175 389.039C334.065 391.415 333.489 393.904 333.432 396.514C333.378 399.124 333.898 401.781 334.993 404.476C336.256 407.588 337.885 410.052 339.877 411.87C341.869 413.687 344.181 415.042 346.813 415.931C349.445 416.823 352.387 417.357 355.645 417.531C358.903 417.709 362.446 417.705 366.273 417.52C368.493 417.396 370.421 417.407 372.053 417.559C373.686 417.709 375.098 418.022 376.29 418.502C377.478 418.982 378.467 419.65 379.256 420.515C380.046 421.379 380.711 422.478 381.252 423.808C381.729 424.985 381.967 426.151 381.96 427.321C381.96 428.488 381.693 429.604 381.166 430.667C380.644 431.731 379.858 432.716 378.812 433.623C377.766 434.526 376.439 435.305 374.831 435.959C373.43 436.528 371.982 436.901 370.481 437.086C368.984 437.268 367.522 437.122 366.092 436.649C364.666 436.172 363.328 435.312 362.087 434.06C360.842 432.812 359.761 431.059 358.846 428.804L344.028 434.821C345.572 438.63 347.517 441.652 349.858 443.879C352.198 446.108 354.756 447.709 357.537 448.665C360.319 449.625 363.225 450.049 366.263 449.924C369.297 449.803 372.295 449.309 375.248 448.441L379.075 457.872L387.228 454.561L383.379 445.088C386.338 443.551 388.874 441.78 390.987 439.778C392.944 437.922 394.473 435.927 395.579 433.783C395.668 433.608 395.754 433.438 395.839 433.26C396.956 430.92 397.554 428.441 397.625 425.824C397.696 423.207 397.166 420.5 396.031 417.709L396.042 417.705Z" fill="#FFA412"/>
</g>
<g id="Group_17">
<path id="Vector_201" d="M309.518 154.575C309.739 153.682 290.143 163.429 289.147 164.532C279.956 174.724 282.578 188.027 287.835 188.155C291.207 188.237 290.556 193.845 290.556 193.845L328.132 177.953C328.132 177.953 323.607 151.577 309.518 154.578V154.575Z" fill="#2C3A64"/>
<path id="Vector_202" d="M314.146 156.634C314.146 156.634 315.49 142 299.132 142C299.132 142 304.087 143.344 306.651 146.033C306.651 146.033 296.219 139.909 284.868 149.319C273.514 158.728 280.571 182.323 277.118 186.804C273.667 191.285 260.222 192.181 261.865 206.665C263.509 221.149 304.531 239.293 301.896 251.281C301.896 251.281 317.973 227.654 306.477 216.871C306.477 216.871 312.079 222.149 312.652 228.422C312.652 228.422 314.174 216.174 306.377 212.259C299.48 208.792 293.828 196.118 294.429 193.852C295.027 191.587 314.146 156.641 314.146 156.641V156.634Z" fill="#2C3A64"/>
<path id="Vector_203" d="M299.295 225.484C296.773 213.344 281.027 209.578 273.575 219.492C272.234 221.274 271.291 223.383 270.985 225.872C269.285 239.656 291.328 295.793 294.483 300.875C300.231 310.128 334.068 341.852 334.068 341.852L340.304 338.072C340.304 338.072 316.301 297.447 312.584 293.645C308.287 289.25 304.079 248.539 299.292 225.484H299.295Z" fill="#ED985F"/>
<path id="Vector_204" d="M331.696 338.09C331.696 338.09 340.798 332.116 344.245 332.5C347.692 332.884 357.665 335.754 357.786 337.219C357.907 338.684 346.674 339.598 345.92 340.402C345.166 341.202 337.536 346.294 334.773 344.697C332.009 343.101 331.699 338.09 331.699 338.09H331.696Z" fill="#ED985F"/>
<path id="Vector_205" d="M268.204 473.082L260.072 471.887C260.072 471.887 232.73 450.166 228.661 409.629C228.244 405.504 228.159 401.318 228.465 397.097C228.501 396.61 228.447 396.123 228.18 395.714C228.18 395.714 228.18 395.707 228.17 395.703C227.295 394.363 225.118 391.002 222.169 386.223C219.263 381.514 214.287 372.613 208.816 362.628C198.956 344.64 187.481 323.129 183.544 316.28C170.998 294.445 177.045 279.762 177.045 279.762C177.045 279.762 212.039 276.302 221.629 267.916L225.082 273.24C225.082 273.24 232.666 306.799 232.307 306.956C232.68 308.097 233.061 309.26 233.445 310.441C239.428 328.904 246.31 351.984 250.063 370.778C252.172 381.354 253.289 390.568 252.688 396.845C252.482 399 252.731 402.307 253.307 406.393C256.693 430.479 268.204 473.082 268.204 473.082Z" fill="#2B478B"/>
<path id="Vector_206" d="M285.263 483.366H251.336C251.336 483.366 250.522 478.195 252.297 474.277C253.994 470.514 256.416 470.393 252.606 464.494C254.762 466.713 261.691 467.63 266.596 466.972C267.197 467.947 270.47 474.483 272.479 475.923C274.695 477.516 284.584 476.947 285.267 483.366H285.263Z" fill="#233862"/>
<path id="Vector_207" d="M233.445 310.437C230.482 326.778 223.482 353.972 208.816 362.628C198.956 344.64 187.481 323.129 183.544 316.28C170.998 294.445 177.045 279.762 177.045 279.762C177.045 279.762 212.039 276.302 221.629 267.916L225.082 273.24C225.082 273.24 232.666 306.799 232.307 306.956C232.68 308.097 233.061 309.26 233.445 310.441V310.437Z" fill="#233862"/>
<path id="Vector_208" d="M295.664 217.952C295.664 217.952 300.462 222.938 302.65 228.912C302.65 228.912 294.998 250.882 277.114 253.635C277.114 253.635 291.264 217.942 295.66 217.952H295.664Z" fill="#609784"/>
<path id="Vector_209" d="M209.652 282.283L209.766 275.939C197.124 277.532 166.175 260.836 166.175 260.836C166.175 260.836 152.95 269.63 151.14 294.748C150.258 307.006 144.666 358.851 144.047 374.331C143.823 379.942 143.748 383.947 143.72 385.547C143.72 385.554 143.72 385.558 143.72 385.561C143.713 386.048 143.482 386.479 143.183 386.866C140.568 390.191 138.299 393.712 136.332 397.364C117.042 433.246 127.13 482.004 127.13 482.004L131.608 480.866C131.608 480.866 147.921 430.323 158.581 408.459C160.391 404.75 162.035 401.866 163.408 400.198C167.416 395.33 171.642 387.065 175.807 377.119C183.683 358.31 191.327 333.495 196.779 314.278C197.164 314.349 209.645 282.287 209.645 282.287L209.652 282.283Z" fill="#2B478B"/>
<path id="Vector_210" d="M283.634 239.944C262.968 235.203 276.171 206.167 277.367 206.679C280.23 206.096 286.519 201.068 292.146 191.253L292.907 191.911L305.598 203.038C305.598 203.038 302.664 207.366 300.195 211.605C298.267 214.923 296.628 218.194 296.887 219.314C297.908 220.118 289.144 241.213 283.63 239.947L283.634 239.944Z" fill="#FFB27D"/>
<path id="Vector_211" d="M305.598 203.041C305.598 203.041 302.664 207.362 300.195 211.608C292.302 206.743 292.295 196.978 292.903 191.918L305.598 203.045V203.041Z" fill="#ED985F"/>
<path id="Vector_212" d="M305.95 208.614C305.95 208.614 286.789 197.953 293.611 186.125C300.434 174.297 302.557 164.955 315.081 171.26C327.605 177.565 327.356 183.44 326.04 187.938C324.724 192.441 311.112 211.078 305.95 208.61V208.614Z" fill="#FFB27D"/>
<path id="Vector_213" d="M329.274 181.043C328.395 175.791 325.727 175.289 323.867 175.641C316.789 163.941 305.228 168.508 305.228 168.508C299.053 176.256 290.125 177.576 290.125 177.576C290.125 177.576 292.349 181.712 301.511 184.272C304.311 185.054 307.487 184.581 310.55 183.55C304.193 187.092 297.545 188.451 297.545 188.451C309.618 189.556 321.107 178.522 322.298 177.341C322.857 179.052 323.831 182.633 323.248 185.25C322.455 188.806 319.296 195.25 321.224 196.082C321.224 196.082 330.59 188.92 329.274 181.043Z" fill="#2C3A64"/>
<path id="Vector_214" d="M154.113 483.366H120.187C120.187 483.366 119.372 478.195 121.147 474.277C122.844 470.514 125.504 468.804 124.868 464.248C127.023 466.467 130.538 468.953 135.443 468.292C136.044 469.266 139.323 474.479 141.33 475.92C143.546 477.513 153.434 476.944 154.117 483.363L154.113 483.366Z" fill="#233862"/>
<path id="Vector_215" d="M286.063 262.963C281.699 264.485 275.57 265.32 269.303 266C260.382 266.974 251.173 267.639 246.346 269.563C244.585 270.263 243.408 271.131 243.042 272.237C240.95 278.524 231.734 288.226 231.734 288.226C172.659 285.537 166.175 260.833 166.175 260.833C205.921 214.627 273.216 201.253 273.216 201.253C273.216 201.253 278.021 199.215 290.125 208.834C298.203 215.257 297.14 217.721 297.14 217.721C297.14 217.721 298.904 258.482 286.06 262.963H286.063Z" fill="#44BF94"/>
<path id="Vector_216" d="M269.303 266C260.382 266.974 251.173 267.639 246.346 269.563C244.375 240.107 258.28 217.952 258.28 217.952C258.28 217.952 267.35 254.855 269.303 266Z" fill="#609784"/>
<path id="Vector_217" d="M278.487 212.252C278.487 212.252 256.128 214.46 254.339 228.984C252.546 243.507 275.773 302.664 279.099 308.023C285.156 317.774 320.815 351.202 320.815 351.202L327.388 347.219C327.388 347.219 302.095 304.41 298.178 300.402C292.032 294.111 286.06 217.284 278.491 212.252H278.487Z" fill="#FFB27D"/>
<path id="Vector_218" d="M254.982 237.725C255.039 238.055 275.616 244.446 288.856 237.725C288.856 237.725 291.69 207.181 275.88 208.838C260.072 210.495 250.71 215.474 250.312 223.041C249.914 230.609 254.979 237.725 254.979 237.725H254.982Z" fill="#44BF94"/>
<path id="Vector_219" d="M318.781 346.956C318.781 346.956 326.801 339.591 330.262 339.416C333.727 339.242 344.032 340.466 344.387 341.892C344.743 343.318 333.805 346.031 333.19 346.945C332.574 347.859 325.866 354.11 322.882 352.98C319.894 351.849 318.784 346.956 318.784 346.956H318.781Z" fill="#FFB27D"/>
</g>
</g>
</g>
</svg>
