<svg width="822" height="510" viewBox="0 0 822 510" fill="none" xmlns="http://www.w3.org/2000/svg">
<g id="Man-svg">
<path id="Vector" d="M50.3877 509.005C50.3877 509.005 -50.5626 414.561 33.315 312.31C107.737 221.587 185.691 258.511 258.37 279.049C311.081 293.943 363.453 266.537 429.991 174.222C520.726 48.3303 835.251 124.684 777.901 318.373C750.148 412.106 862.361 415.512 805.186 509.207L50.3877 509.008V509.005Z" fill="#FFD8D8"/>
<path id="Vector_2" d="M543.324 507.763C543.405 507.798 543.499 507.83 543.606 507.865H599.69C599.165 506.127 597.331 502.957 590.915 502.05C582.213 500.816 567.128 496.412 563.764 486.71C563.661 486.4 563.563 486.08 563.476 485.756C560.806 475.391 541.38 488.932 541.38 488.932C541.38 488.932 541.32 489.343 541.239 490.049C540.788 493.852 539.636 506.156 543.324 507.766V507.763Z" fill="#2C3A64"/>
<path id="Vector_3" d="M617.503 332.241C617.503 332.241 581.028 445.137 570.04 488.798C570.04 488.798 542.966 493.531 538.756 486.118C538.756 486.118 547.478 363.175 563.527 347.557C583.488 328.131 617.503 332.241 617.503 332.241Z" fill="#2C3A64"/>
<g id="Arm">
<path d="M611.553 216.605C611.553 216.605 610.595 211.554 612.088 207.349C613.581 203.143 619.826 192.049 617.848 188.194C615.874 184.339 608.721 173.968 604.306 174C599.895 174.029 608.945 185.1 607.704 188.556C606.462 192.014 606.05 192.294 604.517 191.988C602.984 191.682 600.652 185.065 599.875 186.61C599.099 188.156 599.551 198.398 601.01 200.956C602.469 203.514 599.477 217.932 599.477 217.932L611.553 216.603V216.605Z" fill="#ED975D"/>
<path d="M615.08 214.357C615.08 214.357 605.314 209.524 597.76 211.56C597.76 211.56 582.769 249.179 574.515 276.84C558.668 242.771 526.646 201.009 526.646 201.009C526.646 201.009 507.435 224.128 500.5 239.5C493.565 254.872 557.289 316.588 573.371 320.822C590.156 325.241 587.1 320.814 596.572 316.092C599.621 312.648 609.364 295.502 615.08 214.357Z" fill="#FC7B77"/>
</g>
<path id="Vector_4" d="M668.229 509.522C668.309 509.557 668.403 509.589 668.51 509.624H724.595C724.069 507.885 722.235 504.715 715.819 503.808C707.117 502.575 692.032 498.171 688.669 488.468C688.565 488.159 688.468 487.838 688.381 487.514C685.71 477.15 666.284 490.69 666.284 490.69C666.284 490.69 666.224 491.102 666.144 491.807C665.692 495.61 664.54 507.915 668.229 509.524V509.522Z" fill="#2C3A64"/>
<path id="Vector_5" d="M628.387 329.499C628.387 329.499 622.925 331.616 616.181 335.95C615.414 332.547 614.31 330.336 614.31 330.336C566.181 319.414 437.347 320.304 437.347 320.304C437.347 320.304 409.648 326.349 417.781 361.483C425.265 393.814 548.964 378.844 588.92 369.144C589.854 368.917 590.761 368.681 591.634 368.433C588.455 389.031 610.718 418.42 630.208 445.463C646.273 467.756 659.945 490.323 659.945 490.323C668.015 494.683 695.101 492.16 695.101 492.16C677.982 450.027 628.383 329.502 628.383 329.502L628.387 329.499Z" fill="#35488B"/>
<path id="Vector_6" d="M608.985 318.125C608.985 318.125 621.663 322.03 625.14 323.926C628.618 325.821 636.62 335.37 637.524 338.715C638.424 342.06 639.482 351.897 638.826 353.542C638.17 355.186 628.464 348.878 626.308 342.941C624.153 337.003 618.61 335.405 618.821 335.722C619.032 336.043 621.87 343.646 621.271 343.973C620.672 344.3 618.088 344.868 615.749 340.625C613.409 336.382 608.77 333.279 609.647 328.895C610.524 324.509 608.988 318.125 608.988 318.125H608.985Z" fill="#FFB27D"/>
<g id="head+body">
<path d="M481.217 186.377C481.217 186.377 506.477 218.601 528.89 220.241C528.89 220.241 527.069 208.524 521.077 201.144C523.103 198.544 524.871 196.169 526.399 194.051C531.471 186.989 533.817 182.765 533.817 182.765L518.96 154.458C516.821 158.721 514.383 162.435 511.796 165.678C498.463 182.377 481.216 186.374 481.216 186.374L481.217 186.377Z" fill="#FFB27D"/>
<path d="M511.798 165.684C511.798 165.684 510.453 183.711 526.4 194.054C531.472 186.992 533.818 182.768 533.818 182.768L524.966 165.905C516.773 164.809 511.798 165.684 511.798 165.684Z" fill="#ED975D"/>
<path d="M539.966 184.576C539.966 184.576 505.352 177.431 512.449 157.758C519.546 138.084 519.858 123.912 542.26 127.64C564.662 131.371 566.225 139.825 565.599 146.775C564.971 153.729 549.156 185.925 539.969 184.575L539.966 184.576Z" fill="#FFB27D"/>
<path d="M504.981 123.982C504.713 123.601 503.994 123.25 502.284 123.019C502.284 123.019 503.819 122.34 505.671 122.45C506.461 120.273 508.496 116.469 512.812 115.863C512.812 115.863 510.379 116.766 509.634 119.091C515.297 114.967 526.186 112.53 554.177 116.949C591.068 122.773 574.463 143.785 569.108 146.009C563.755 148.232 552.959 140.02 543.805 139.929C534.651 139.838 530.61 151.689 527.229 153.083C523.847 154.476 525.615 151.664 521.807 149.598C518 147.531 516.38 153.812 516.781 158.015C517.182 162.218 510.437 167.162 510.437 167.162L505.791 160.986C501.144 154.81 500.403 130.226 504.019 125.301C504.337 124.866 504.656 124.425 504.981 123.982Z" fill="#2B478B"/>
<path d="M536.792 235.591C534.048 256.49 529.889 270.633 529.347 272.482C527.387 279.143 525 285.452 522.75 291.018C522.678 291.195 522.609 291.369 522.538 291.546C518.099 302.479 507.765 308.517 508.817 310.54C510.937 314.596 501.926 329.005 482.956 340.369C460.942 353.555 434.243 365.252 424.955 360.562C421.845 358.983 419.634 354.917 418.107 349.457C414.855 337.965 416.067 286.938 416.067 286.938C419.542 203.866 499.666 177.257 499.666 177.257C499.666 177.257 503.966 195.453 525.668 195.056C525.706 195.086 538.902 219.464 536.789 235.592L536.792 235.591Z" fill="#FC7B77"/>
<path d="M505.803 311.574C507.733 315.723 497.506 329.216 478.036 339.707C452.226 314.559 465.76 236.488 465.76 236.488L520.033 292.217C515.004 303.203 504.828 309.473 505.803 311.574Z" fill="#F9514C"/>
</g>
<path id="Vector_7" d="M540.711 295.47C536.751 301.175 532.497 306.41 528.608 310.983C528.484 311.129 528.364 311.271 528.24 311.417C523.152 309.708 518.102 306.299 515.558 303.164C509.718 295.975 509.236 252.766 509.236 252.766C509.236 252.766 533.153 278.509 540.711 295.47Z" fill="#F9514C"/>
<path id="Vector_8" d="M613.848 319.093C613.848 319.093 555.999 304.984 526.309 298.81C528.926 268.284 537.501 175.995 483.552 212.94C483.552 212.94 479.475 311.846 505.615 331.879C505.615 331.879 589.529 333.427 605.507 332.576C605.507 332.576 610.203 330.458 611.368 329.047C615.096 324.532 613.844 319.096 613.844 319.096L613.848 319.093Z" fill="#FF726D"/>
<g id="Group">
<path id="Vector_9" d="M278.833 467.176L280.968 467.01C280.152 453.472 268.394 445.895 268.394 445.895C260.16 439.537 257.486 432.555 257.486 432.555C257.486 432.555 271.379 418.431 258.343 409.461C258.343 409.461 248.821 404.436 241.056 404.844C241.056 404.844 252.057 420.919 248.5 422.517C244.942 424.115 237.722 403.835 237.722 403.835C237.722 403.835 216.051 402.003 209.083 404.926C209.083 404.926 227.608 418.134 223.705 418.921C219.803 419.709 199.795 406.742 199.795 406.742C199.795 406.742 179.626 409.732 180.701 420.455C181.775 431.176 188.727 434.486 191.779 434.2C194.835 433.914 212.701 427.971 213.089 430.152C213.477 432.334 202.724 439.461 195.193 439.794C195.193 439.794 209.411 453.457 218.862 449.514C228.314 445.571 229.121 439.318 235.011 436.974C240.902 434.629 245.932 434.635 243.499 437.026C241.066 439.418 230.406 441.742 227.036 446.933C223.665 452.124 220.643 455.627 230.423 454.347C240.199 453.063 256.094 446.831 256.79 439.692C256.82 439.38 256.85 439.085 256.877 438.799C256.89 439.365 256.79 439.692 256.79 439.692C258.828 440.01 263.065 443.279 266.128 445.842C266.6 446.292 267.296 446.895 268.29 447.7C268.665 448.03 268.976 448.307 269.207 448.514C275.416 454.437 278.836 467.176 278.836 467.176H278.833Z" fill="#82B378"/>
<g id="Group_2">
<path id="Vector_10" d="M306.057 414.792C306.057 414.792 283.957 404.007 294.269 389.372C294.269 389.372 302.519 380.384 311.362 378.074C311.362 378.074 306.646 399.901 311.362 400.414C316.078 400.927 314.602 375.765 314.602 375.765C314.602 375.765 337.88 366.006 347.017 366.776C347.017 366.776 332.578 388.089 337.294 387.576C342.01 387.063 358.216 365.493 358.216 365.493C358.216 365.493 382.083 361.641 385.915 373.965C389.747 386.29 383.559 392.452 380.021 393.222C376.483 393.992 353.794 393.735 354.383 396.305C354.972 398.871 370.295 402.98 378.843 400.671C378.843 400.671 369.414 420.954 357.037 419.927C344.66 418.901 340.832 412.225 333.167 411.712C325.506 411.199 319.906 412.995 323.739 414.795C327.571 416.591 340.534 415.384 346.722 419.968C352.911 424.553 357.921 427.376 346.428 429.432C334.934 431.485 314.307 430.202 310.184 422.5L306.057 414.798V414.792Z" fill="#A8D29F"/>
<path id="Vector_11" d="M375.014 377.818C375.014 377.818 313.132 395.278 306.06 414.792C306.06 414.792 306.355 423.52 300.166 433.535C300.166 433.535 290.624 446.163 296.063 461.533L298.52 460.958C298.52 460.958 296.374 445.708 300.424 436.875C300.588 436.548 300.832 436.078 301.134 435.507C301.866 434.256 302.358 433.337 302.673 432.669C304.879 428.723 308.065 423.573 310.187 422.494C310.187 422.494 296.337 405.547 375.017 377.815L375.014 377.818Z" fill="#82B378"/>
</g>
<g id="Group_3">
<path id="Vector_12" d="M270.897 399.921C270.897 399.921 300.029 385.707 286.434 366.412C286.434 366.412 275.556 354.565 263.906 351.521C263.906 351.521 270.121 380.291 263.906 380.967C257.69 381.644 259.631 348.473 259.631 348.473C259.631 348.473 228.947 335.612 216.904 336.627C216.904 336.627 235.939 364.72 229.723 364.044C223.508 363.367 202.145 334.935 202.145 334.935C202.145 334.935 170.68 329.858 165.633 346.105C160.582 362.352 168.739 370.474 173.401 371.489C178.063 372.504 207.972 372.166 207.195 375.552C206.419 378.938 186.22 384.35 174.954 381.306C174.954 381.306 187.385 408.046 203.697 406.69C220.01 405.337 225.061 396.535 235.162 395.859C245.263 395.182 252.643 397.55 247.593 399.921C242.542 402.289 225.453 400.697 217.296 406.74C209.14 412.782 202.536 416.507 217.684 419.213C232.833 421.922 260.023 420.228 265.462 410.076L270.901 399.921H270.897Z" fill="#A8D29F"/>
<path id="Vector_13" d="M278.666 424.629C270.509 411.429 270.897 399.921 270.897 399.921C261.576 374.199 180.005 351.182 180.005 351.182C283.716 387.736 265.462 410.076 265.462 410.076C268.257 411.496 272.447 418.271 275.355 423.468C275.77 424.352 276.426 425.576 277.4 427.239C277.795 427.991 278.11 428.607 278.331 429.035C283.669 440.678 280.841 460.783 280.841 460.783L284.078 461.541C291.25 441.278 278.669 424.634 278.669 424.634L278.666 424.629Z" fill="#82B378"/>
</g>
<path id="Vector_14" d="M214.813 455.749C214.813 483.21 240.363 505.474 271.878 505.474C278.458 505.474 284.777 504.503 290.658 502.718C312.948 495.952 328.943 477.476 328.943 455.749H214.813Z" fill="#ED7D2B"/>
<path id="Vector_15" d="M252.375 455.749C252.375 474.379 257.496 493.353 274.9 501.869C277.792 503.284 287.481 501.752 290.658 502.715C312.948 495.949 328.943 477.474 328.943 455.746H252.375V455.749Z" fill="#F99746"/>
<path id="Vector_16" d="M271.881 505.474C274.201 505.727 262.527 505.474 264.93 505.474C296.444 505.474 321.995 483.21 321.995 455.749H307.817C307.817 481.122 300.056 502.432 271.885 505.474H271.881Z" fill="#FFB176"/>
<path id="Vector_17" d="M214.026 508.008H329.736C329.736 506.314 328.947 504.78 327.675 503.669C326.4 502.56 324.639 501.872 322.695 501.872H221.068C217.182 501.872 214.029 504.619 214.029 508.008H214.026Z" fill="#ED7D2B"/>
<path id="Vector_18" d="M268.24 508.008H329.733C329.733 506.314 328.943 504.78 327.671 503.669C326.396 502.56 324.636 501.872 322.691 501.872H275.278C271.393 501.872 268.24 504.619 268.24 508.008Z" fill="#F99746"/>
<path id="Vector_19" d="M213.517 457.275H330.824V455.749H213.517V457.275Z" fill="#DB6A1F"/>
</g>
<g id="Group_4">
<path id="Vector_20" d="M556.066 372.516H424.15C419.525 372.516 415.776 375.782 415.776 379.812V399.259C415.776 403.289 419.525 406.556 424.15 406.556H556.066C560.691 406.556 564.44 403.289 564.44 399.259V379.812C564.44 375.782 560.691 372.516 556.066 372.516Z" fill="#F99746"/>
<path id="Vector_21" d="M564.44 395.718V399.259C564.44 403.272 560.672 406.556 556.066 406.556H424.15C419.545 406.556 415.776 403.272 415.776 399.259V395.427H562.04C562.871 395.427 563.68 395.529 564.44 395.718Z" fill="#ED7D2B"/>
<path id="Vector_22" d="M447.532 406.556L441.584 426.183L441.578 426.189L416.82 507.874H414.216L428.524 440.106C428.538 440.039 428.558 439.972 428.575 439.899L435.653 406.384L447.532 406.559V406.556Z" fill="#E8C6A7"/>
<path id="Vector_23" d="M447.532 406.556L441.584 426.183L441.578 426.189C441.236 426.335 430.409 431.211 428.575 439.896L435.653 406.381L447.532 406.556Z" fill="#C69D7B"/>
<path id="Vector_24" d="M564.44 507.871H561.836L541.664 441.331V441.319L537.079 426.189L537.072 426.183L531.125 406.556L543.003 406.381L547.053 425.544L550.082 439.896C550.095 439.969 550.115 440.036 550.132 440.103L564.44 507.871Z" fill="#E8C6A7"/>
<path id="Vector_25" d="M524.23 432.258C524.23 432.258 524.203 432.258 524.19 432.234C524.133 432.15 524.15 432.167 524.23 432.258Z" fill="#E8C6A7"/>
<path id="Vector_26" d="M547.056 425.544C544.864 428.324 541.842 433.547 541.668 441.319L537.082 426.189L537.076 426.183L531.128 406.556L543.006 406.381L547.056 425.544Z" fill="#C69D7B"/>
</g>
<g id="Group_5">
<path id="Vector_27" d="M410.207 128.1C406.451 143.545 401.143 157.66 394.285 170.297C393.974 170.877 393.656 171.452 393.331 172.026C393.171 172.318 393.01 172.606 392.843 172.895C392.431 173.621 392.013 174.342 391.588 175.056C391.363 175.441 391.136 175.823 390.901 176.205C390.49 176.894 390.068 177.576 389.643 178.253C389.215 178.938 388.78 179.617 388.338 180.291C387.581 181.458 386.808 182.61 386.015 183.747C385.864 183.966 385.714 184.184 385.556 184.4C385.145 184.989 384.73 185.573 384.301 186.153C384.144 186.378 383.98 186.602 383.813 186.824C383.401 187.387 382.983 187.947 382.558 188.501C382.333 188.801 382.102 189.096 381.871 189.393C381.46 189.93 381.041 190.461 380.616 190.988V190.994H380.613C380.385 191.28 380.154 191.566 379.92 191.852C379.9 191.884 379.877 191.907 379.85 191.936C379.442 192.447 379.023 192.951 378.595 193.453C378.437 193.648 378.273 193.844 378.106 194.036C377.691 194.526 377.273 195.013 376.851 195.494C376.627 195.754 376.399 196.01 376.165 196.267C375.753 196.737 375.335 197.2 374.906 197.664C374.471 198.142 374.03 198.621 373.581 199.09C373.169 199.531 372.751 199.968 372.326 200.403C372.018 200.723 371.707 201.041 371.389 201.356C371.369 201.382 371.342 201.406 371.315 201.432C371.258 201.49 371.201 201.549 371.141 201.607C370.729 202.024 370.311 202.435 369.886 202.846C368.976 203.742 368.045 204.623 367.095 205.489C366.683 205.871 366.265 206.25 365.84 206.626C364.862 207.507 363.862 208.373 362.847 209.219C362.432 209.572 362.014 209.919 361.589 210.263C360.859 210.864 360.116 211.456 359.37 212.039C359.363 212.045 359.357 212.051 359.347 212.056C358.921 212.389 358.49 212.721 358.058 213.048C357.643 213.366 357.225 213.681 356.803 213.987C354.534 215.673 352.197 217.285 349.798 218.825C349.383 219.097 348.964 219.362 348.543 219.624C346.826 220.701 345.075 221.742 343.295 222.742C342.414 223.241 341.524 223.731 340.627 224.209C338.686 225.247 336.708 226.245 334.69 227.195C333.143 227.927 331.577 228.633 329.991 229.313C327.584 230.342 325.131 231.316 322.627 232.226C322.212 232.381 321.794 232.532 321.372 232.681C320.643 232.941 319.91 233.194 319.17 233.442C318.102 233.804 317.028 234.154 315.943 234.495C313.544 235.25 311.097 235.95 308.61 236.601C307.73 236.834 306.843 237.056 305.953 237.271C302.526 238.111 299.021 238.852 295.437 239.494C292.696 239.987 289.908 240.424 287.073 240.797C280.56 241.669 273.802 242.235 266.8 242.486C265.659 242.53 264.508 242.562 263.353 242.585C261.67 242.623 259.969 242.641 258.256 242.641C256.197 242.641 254.126 242.62 252.047 242.579C234.569 242.241 216.493 240.468 199.032 237.225C197.713 236.98 196.398 236.729 195.086 236.467C179.586 233.375 164.652 229.111 151.137 223.646C150.792 223.509 150.451 223.369 150.113 223.229C146.712 221.832 143.402 220.356 140.199 218.802C104.611 201.56 82.1566 174.779 91.9631 137.878C107.198 80.5449 199.159 19.1609 281.283 4.10647C401.32 -17.9035 428.682 52.1773 410.207 128.1Z" fill="#FFD8D8"/>
<g id="Group_6">
<g id="Group_7">
<path id="Vector_28" d="M343.295 222.742C342.414 223.241 341.524 223.731 340.627 224.209C338.686 225.247 336.708 226.245 334.69 227.195C333.143 227.927 331.577 228.633 329.991 229.313C327.584 230.342 325.131 231.316 322.627 232.226C322.212 232.381 321.794 232.532 321.372 232.681C320.643 232.941 319.91 233.194 319.17 233.442H272.865C272.423 233.442 272.002 233.349 271.633 233.18C270.85 232.824 270.295 232.139 270.204 231.34L270.194 231.235V224.95C270.268 223.725 271.443 222.742 272.865 222.742H343.295Z" fill="#FFB93E"/>
<g id="Group_8">
<path id="Vector_29" d="M322.627 222.742V232.226C322.212 232.381 321.794 232.532 321.372 232.681V222.742H322.627Z" fill="#FFA412"/>
<path id="Vector_30" d="M312.038 222.742H310.782V233.445H312.038V222.742Z" fill="#FFA412"/>
</g>
</g>
<g id="Group_9">
<path id="Vector_31" d="M359.37 212.039C359.37 212.039 359.357 212.051 359.347 212.056C358.921 212.389 358.49 212.721 358.058 213.048C357.643 213.366 357.225 213.681 356.803 213.987C354.534 215.673 352.197 217.286 349.798 218.825C349.383 219.097 348.964 219.362 348.543 219.624C346.826 220.701 345.075 221.742 343.295 222.742H275.512C274.087 222.742 272.915 221.759 272.842 220.531C272.842 220.494 272.838 220.453 272.838 220.412V214.369C272.838 214.328 272.842 214.29 272.842 214.25C272.909 213.115 273.916 212.191 275.194 212.056C275.298 212.045 275.405 212.039 275.512 212.039H359.37Z" fill="#FFB93E"/>
<g id="Group_10">
<path id="Vector_32" d="M358.058 212.039V213.048C357.643 213.366 357.225 213.681 356.803 213.987V212.039H358.058Z" fill="#FFA412"/>
<path id="Vector_33" d="M349.798 212.039V218.825C349.383 219.097 348.964 219.362 348.543 219.624V212.039H349.798Z" fill="#FFA412"/>
<path id="Vector_34" d="M337.13 212.039H335.874V222.742H337.13V212.039Z" fill="#FFA412"/>
<path id="Vector_35" d="M325.271 212.039H324.016V222.742H325.271V212.039Z" fill="#FFA412"/>
<path id="Vector_36" d="M314.685 212.039H313.43V222.742H314.685V212.039Z" fill="#FFA412"/>
</g>
</g>
<g id="Group_11">
<path id="Vector_37" d="M367.095 201.356V205.489C368.045 204.622 368.976 203.742 369.886 202.846V201.356H367.095ZM367.095 201.356V205.489C368.045 204.622 368.976 203.742 369.886 202.846C370.311 202.435 370.729 202.024 371.141 201.607C371.201 201.549 371.258 201.49 371.315 201.432C371.342 201.406 371.369 201.382 371.389 201.356H367.095ZM367.095 201.356V205.489C368.045 204.622 368.976 203.742 369.886 202.846C370.311 202.435 370.729 202.024 371.141 201.607C371.201 201.549 371.258 201.49 371.315 201.432C371.342 201.406 371.369 201.382 371.389 201.356H367.095ZM367.095 201.356V205.489C368.045 204.622 368.976 203.742 369.886 202.846C370.311 202.435 370.729 202.024 371.141 201.607C371.201 201.549 371.258 201.49 371.315 201.432C371.342 201.406 371.369 201.382 371.389 201.356H367.095ZM367.095 201.356V205.489C368.045 204.622 368.976 203.742 369.886 202.846C370.311 202.435 370.729 202.024 371.141 201.607C371.201 201.549 371.258 201.49 371.315 201.432C371.342 201.406 371.369 201.382 371.389 201.356H367.095ZM367.095 201.356V205.489C368.045 204.622 368.976 203.742 369.886 202.846C370.311 202.435 370.729 202.024 371.141 201.607C371.201 201.549 371.258 201.49 371.315 201.432C371.342 201.406 371.369 201.382 371.389 201.356H367.095ZM367.095 201.356V205.489C368.045 204.622 368.976 203.742 369.886 202.846V201.356H367.095ZM267.389 201.356C267.192 201.356 266.998 201.374 266.81 201.412C266.784 201.414 266.757 201.42 266.73 201.426C265.723 201.651 264.939 202.377 264.755 203.281C264.742 203.342 264.735 203.403 264.729 203.468C264.729 203.5 264.722 203.532 264.719 203.564C264.719 203.605 264.719 203.643 264.719 203.683V209.726C264.719 209.767 264.719 209.808 264.719 209.846C264.719 209.901 264.725 209.954 264.735 210.006C264.752 210.114 264.775 210.216 264.806 210.318C265.107 211.319 266.154 212.056 267.389 212.056H359.347C359.347 212.056 359.363 212.045 359.37 212.039C360.116 211.456 360.859 210.864 361.589 210.263C362.014 209.919 362.432 209.572 362.847 209.219C363.862 208.373 364.862 207.507 365.84 206.626C366.265 206.25 366.683 205.871 367.095 205.489C368.045 204.622 368.976 203.742 369.886 202.846C370.311 202.435 370.729 202.024 371.141 201.607C371.201 201.549 371.258 201.49 371.315 201.432C371.342 201.406 371.369 201.382 371.389 201.356H267.389Z" fill="#FFB93E"/>
<path id="Vector_38" d="M326.289 212.056H267.102C265.83 212.056 264.782 211.074 264.719 209.846C264.719 209.805 264.719 209.767 264.719 209.726V203.683C264.719 203.643 264.719 203.605 264.719 203.564C264.719 203.532 264.722 203.497 264.725 203.465C264.822 202.456 265.585 201.63 266.576 201.412C266.61 201.403 266.643 201.397 266.677 201.391C266.814 201.368 266.954 201.353 267.098 201.353H319.016C319.023 201.38 319.029 201.403 319.036 201.429C319.873 204.567 321.807 208.872 326.259 212.039C326.265 212.045 326.275 212.051 326.282 212.056H326.289Z" fill="#FFA412"/>
<g id="Group_12">
<path id="Vector_39" d="M367.095 201.356V205.489C366.683 205.871 366.265 206.25 365.84 206.626V201.356H367.095Z" fill="#FFA412"/>
<path id="Vector_40" d="M362.847 201.356V209.219C362.432 209.572 362.014 209.919 361.589 210.263V201.356H362.847Z" fill="#FFA412"/>
<path id="Vector_41" d="M357.747 201.356H356.492V212.059H357.747V201.356Z" fill="#FFA412"/>
<path id="Vector_42" d="M349.935 201.356H348.68V212.059H349.935V201.356Z" fill="#FFA412"/>
<path id="Vector_43" d="M341.675 201.356H340.42V212.059H341.675V201.356Z" fill="#FFA412"/>
<path id="Vector_44" d="M329.01 201.356H327.755V212.059H329.01V201.356Z" fill="#FFA412"/>
<path id="Vector_45" d="M317.152 201.356H315.897V212.059H317.152V201.356Z" fill="#FFA412"/>
<path id="Vector_46" d="M306.562 201.356H305.307V212.059H306.562V201.356Z" fill="#FFA412"/>
<path id="Vector_47" d="M371.141 201.356V201.607C370.729 202.024 370.311 202.435 369.886 202.846V201.356H371.141Z" fill="#FFA412"/>
</g>
</g>
<g id="Group_13">
<path id="Vector_48" d="M371.315 190.994V190.729H370.91V201.356H371.389C371.707 201.041 372.018 200.723 372.326 200.403C372.751 199.968 373.169 199.531 373.581 199.09V190.994H371.315ZM379.85 191.758C379.776 191.665 379.696 191.578 379.609 191.493C379.602 191.487 379.592 191.478 379.585 191.473C379.579 191.464 379.572 191.458 379.565 191.452C379.545 191.432 379.522 191.414 379.502 191.397C379.472 191.373 379.445 191.35 379.415 191.327C379.385 191.303 379.358 191.28 379.328 191.26C379.267 191.216 379.204 191.175 379.137 191.134C379.05 191.082 378.96 191.035 378.866 190.994C378.822 190.974 378.779 190.953 378.735 190.936C378.712 190.927 378.688 190.918 378.668 190.91C378.645 190.901 378.622 190.895 378.598 190.886C378.441 190.831 378.277 190.793 378.109 190.767C378.096 190.767 378.083 190.767 378.073 190.761C378.063 190.761 378.049 190.755 378.039 190.755C378.022 190.755 378.006 190.755 377.989 190.749C377.976 190.749 377.955 190.743 377.939 190.743C377.929 190.743 377.915 190.743 377.905 190.743H377.895C377.878 190.741 377.862 190.741 377.842 190.741C377.775 190.735 377.708 190.732 377.638 190.732H267.162C265.736 190.732 264.565 191.715 264.491 192.942C264.491 192.98 264.488 193.021 264.488 193.062V199.105C264.488 199.146 264.491 199.184 264.491 199.224C264.491 199.294 264.501 199.364 264.511 199.434C264.678 200.423 265.559 201.216 266.683 201.394C266.727 201.403 266.77 201.409 266.814 201.415C266.928 201.426 267.045 201.435 267.162 201.435H371.319C371.345 201.409 371.372 201.385 371.392 201.359C371.71 201.044 372.021 200.726 372.329 200.405C372.754 199.971 373.173 199.533 373.584 199.093C374.033 198.624 374.475 198.145 374.91 197.667C375.338 197.203 375.757 196.74 376.168 196.27C376.402 196.013 376.63 195.757 376.854 195.497C377.276 195.016 377.694 194.529 378.109 194.039C378.277 193.847 378.441 193.651 378.598 193.456C379.026 192.954 379.445 192.45 379.853 191.939C379.88 191.91 379.903 191.887 379.923 191.858C379.9 191.823 379.877 191.79 379.853 191.761L379.85 191.758ZM371.315 190.994V190.729H370.91V201.356H371.389C371.707 201.041 372.018 200.723 372.326 200.403C372.751 199.968 373.169 199.531 373.581 199.09V190.994H371.315Z" fill="#FFB93E"/>
<path id="Vector_49" d="M326.058 201.432H266.871C266.824 201.432 266.777 201.432 266.73 201.429C266.68 201.429 266.63 201.42 266.576 201.414C265.438 201.277 264.545 200.353 264.484 199.224C264.484 199.183 264.484 199.146 264.484 199.105V193.062C264.484 193.021 264.484 192.983 264.484 192.942C264.548 191.717 265.595 190.732 266.867 190.732H318.785C318.808 190.819 318.832 190.907 318.859 190.997C319.719 194.097 321.64 198.259 325.951 201.359C325.988 201.385 326.021 201.409 326.058 201.435V201.432Z" fill="#FFA412"/>
<g id="Group_14">
<path id="Vector_50" d="M366.864 190.729H365.609V201.429H366.864V190.729Z" fill="#FFA412"/>
<path id="Vector_51" d="M362.613 190.729H361.358V201.429H362.613V190.729Z" fill="#FFA412"/>
<path id="Vector_52" d="M357.516 190.729H356.261V201.429H357.516V190.729Z" fill="#FFA412"/>
<path id="Vector_53" d="M349.704 190.729H348.449V201.429H349.704V190.729Z" fill="#FFA412"/>
<path id="Vector_54" d="M341.44 190.729H340.185V201.429H341.44V190.729Z" fill="#FFA412"/>
<path id="Vector_55" d="M328.776 190.729H327.52V201.429H328.776V190.729Z" fill="#FFA412"/>
<path id="Vector_56" d="M316.917 190.729H315.662V201.429H316.917V190.729Z" fill="#FFA412"/>
<path id="Vector_57" d="M306.331 190.729H305.076V201.429H306.331V190.729Z" fill="#FFA412"/>
<path id="Vector_58" d="M370.907 190.729H369.652V201.429H370.907V190.729Z" fill="#FFA412"/>
<path id="Vector_59" d="M373.581 190.729V199.09C373.169 199.531 372.751 199.968 372.326 200.403V190.729H373.581Z" fill="#FFA412"/>
<path id="Vector_60" d="M376.165 190.729V196.267C375.753 196.737 375.335 197.2 374.906 197.664V190.729H376.165Z" fill="#FFA412"/>
<path id="Vector_61" d="M378.106 190.767V194.036C377.691 194.526 377.273 195.013 376.851 195.494V190.729H377.634C377.704 190.729 377.771 190.729 377.838 190.738C377.858 190.738 377.875 190.738 377.892 190.741H377.902C377.902 190.741 377.925 190.741 377.935 190.741C377.952 190.741 377.972 190.743 377.986 190.746C378.002 190.749 378.019 190.752 378.036 190.755C378.046 190.755 378.056 190.755 378.069 190.755C378.079 190.758 378.093 190.758 378.106 190.761V190.767Z" fill="#FFA412"/>
</g>
</g>
<g id="Group_15">
<path id="Vector_62" d="M386.015 182.621V183.747C385.864 183.966 385.714 184.185 385.556 184.4C385.145 184.989 384.73 185.573 384.301 186.153C384.144 186.378 383.98 186.602 383.813 186.824C383.401 187.387 382.983 187.947 382.558 188.501C382.333 188.801 382.102 189.096 381.871 189.393C381.46 189.93 381.041 190.461 380.616 190.988V190.994H272.865C272.423 190.994 272.002 190.898 271.633 190.729C271.078 190.478 270.639 190.061 270.398 189.554C270.295 189.347 270.231 189.122 270.204 188.889L270.194 188.784V182.502C270.211 182.231 270.281 181.968 270.398 181.729C270.803 180.886 271.757 180.291 272.865 180.291H383.341C383.505 180.291 383.659 180.303 383.813 180.329C383.983 180.355 384.147 180.393 384.301 180.449C384.817 180.621 385.252 180.93 385.556 181.321C385.848 181.691 386.015 182.137 386.015 182.621Z" fill="#FFB93E"/>
<path id="Vector_63" d="M331.764 190.994H272.577C272.182 190.994 271.807 190.898 271.479 190.729C270.78 190.373 270.281 189.688 270.204 188.889C270.201 188.854 270.198 188.819 270.194 188.784C270.194 188.743 270.194 188.705 270.194 188.664V182.621C270.194 182.581 270.194 182.543 270.194 182.502C270.258 181.277 271.305 180.291 272.577 180.291H324.495C325.301 183.356 327.152 187.562 331.4 190.729C331.52 190.816 331.641 190.904 331.764 190.994Z" fill="#FFA412"/>
<g id="Group_16">
<path id="Vector_64" d="M372.57 180.291H371.315V190.994H372.57V180.291Z" fill="#FFA412"/>
<path id="Vector_65" d="M368.32 180.291H367.065V190.994H368.32V180.291Z" fill="#FFA412"/>
<path id="Vector_66" d="M363.222 180.291H361.967V190.994H363.222V180.291Z" fill="#FFA412"/>
<path id="Vector_67" d="M355.411 180.291H354.155V190.994H355.411V180.291Z" fill="#FFA412"/>
<path id="Vector_68" d="M347.15 180.291H345.895V190.994H347.15V180.291Z" fill="#FFA412"/>
<path id="Vector_69" d="M334.485 180.291H333.23V190.994H334.485V180.291Z" fill="#FFA412"/>
<path id="Vector_70" d="M322.627 180.291H321.372V190.994H322.627V180.291Z" fill="#FFA412"/>
<path id="Vector_71" d="M312.038 180.291H310.782V190.994H312.038V180.291Z" fill="#FFA412"/>
<path id="Vector_72" d="M376.617 180.291H375.362V190.994H376.617V180.291Z" fill="#FFA412"/>
<path id="Vector_73" d="M379.291 180.291H378.036V190.994H379.291V180.291Z" fill="#FFA412"/>
<path id="Vector_74" d="M381.871 180.291V189.393C381.46 189.93 381.041 190.461 380.616 190.988V180.291H381.871Z" fill="#FFA412"/>
<path id="Vector_75" d="M383.813 180.329V186.824C383.401 187.387 382.983 187.947 382.558 188.501V180.291H383.341C383.505 180.291 383.659 180.303 383.813 180.329Z" fill="#FFA412"/>
<path id="Vector_76" d="M385.556 181.321V184.4C385.145 184.989 384.73 185.573 384.301 186.153V180.449C384.817 180.621 385.252 180.93 385.556 181.321Z" fill="#FFA412"/>
</g>
</g>
<g id="Group_17">
<path id="Vector_77" d="M394.285 170.297C393.974 170.877 393.656 171.452 393.331 172.026C393.171 172.318 393.01 172.607 392.843 172.895C392.431 173.621 392.013 174.342 391.588 175.056C391.363 175.441 391.136 175.823 390.901 176.205C390.49 176.894 390.068 177.576 389.643 178.253C389.215 178.938 388.779 179.617 388.338 180.291H281.895C280.469 180.291 279.294 179.308 279.224 178.081C279.224 178.043 279.224 178.002 279.224 177.961V171.918C279.224 171.877 279.224 171.839 279.224 171.799C279.291 170.667 280.299 169.74 281.577 169.606C281.681 169.594 281.788 169.588 281.895 169.588H378.173C378.173 169.588 378.18 169.588 378.183 169.588H392.371C392.531 169.588 392.689 169.603 392.843 169.626C393.01 169.652 393.174 169.693 393.331 169.746C393.378 169.763 393.425 169.778 393.472 169.798C393.505 169.81 393.539 169.824 393.572 169.842C393.666 169.88 393.756 169.926 393.843 169.979C393.88 169.999 393.917 170.023 393.954 170.046C393.967 170.052 393.977 170.061 393.991 170.069C394.021 170.09 394.048 170.107 394.074 170.128C394.148 170.18 394.218 170.235 394.285 170.297Z" fill="#FFB93E"/>
<path id="Vector_78" d="M340.791 180.291H281.604C280.332 180.291 279.284 179.308 279.221 178.081C279.221 178.04 279.221 178.002 279.221 177.961V171.918C279.221 171.877 279.221 171.839 279.221 171.799C279.281 170.667 280.181 169.74 281.323 169.606C281.413 169.594 281.51 169.588 281.604 169.588H333.522C333.522 169.588 333.522 169.6 333.525 169.606C334.358 172.755 336.289 177.101 340.788 180.291H340.791Z" fill="#FFA412"/>
<g id="Group_18">
<path id="Vector_79" d="M381.6 169.591H380.345V180.294H381.6V169.591Z" fill="#FFA412"/>
<path id="Vector_80" d="M377.35 169.591H376.095V180.294H377.35V169.591Z" fill="#FFA412"/>
<path id="Vector_81" d="M372.252 169.591H370.997V180.294H372.252V169.591Z" fill="#FFA412"/>
<path id="Vector_82" d="M364.441 169.591H363.185V180.294H364.441V169.591Z" fill="#FFA412"/>
<path id="Vector_83" d="M356.177 169.591H354.922V180.294H356.177V169.591Z" fill="#FFA412"/>
<path id="Vector_84" d="M343.512 169.591H342.257V180.294H343.512V169.591Z" fill="#FFA412"/>
<path id="Vector_85" d="M331.654 169.591H330.399V180.294H331.654V169.591Z" fill="#FFA412"/>
<path id="Vector_86" d="M321.068 169.591H319.813V180.294H321.068V169.591Z" fill="#FFA412"/>
<path id="Vector_87" d="M385.647 169.591H384.392V180.294H385.647V169.591Z" fill="#FFA412"/>
<path id="Vector_88" d="M388.318 169.591H387.062V180.294H388.318V169.591Z" fill="#FFA412"/>
<path id="Vector_89" d="M390.901 169.591V176.205C390.49 176.893 390.068 177.576 389.643 178.252V169.591H390.901Z" fill="#FFA412"/>
<path id="Vector_90" d="M392.843 169.626V172.895C392.431 173.621 392.013 174.342 391.588 175.056V169.588H392.371C392.531 169.588 392.689 169.603 392.843 169.626Z" fill="#FFA412"/>
<path id="Vector_91" d="M394.285 170.297C393.974 170.877 393.656 171.452 393.331 172.026V169.746C393.378 169.763 393.425 169.778 393.472 169.798C393.505 169.81 393.539 169.824 393.572 169.842C393.666 169.88 393.756 169.926 393.843 169.979C393.88 169.999 393.917 170.023 393.954 170.046C393.967 170.052 393.977 170.061 393.991 170.069C394.021 170.09 394.048 170.107 394.074 170.128C394.148 170.18 394.218 170.235 394.285 170.297Z" fill="#FFA412"/>
</g>
</g>
<g id="Group_19">
<path id="Vector_92" d="M380.539 161.233V167.275C380.539 167.757 380.372 168.203 380.081 168.576C379.776 168.967 379.338 169.276 378.826 169.448C378.668 169.501 378.504 169.541 378.337 169.568C378.287 169.576 378.233 169.582 378.183 169.588C378.143 169.594 378.099 169.597 378.059 169.6C378.039 169.6 378.019 169.6 377.996 169.603C377.952 169.603 377.909 169.603 377.865 169.603H267.389C265.964 169.603 264.792 168.62 264.719 167.392C264.719 167.351 264.719 167.313 264.719 167.272V161.23C264.719 161.189 264.719 161.151 264.719 161.11C264.792 159.885 265.964 158.899 267.389 158.899H377.865C377.912 158.899 377.959 158.899 378.006 158.902C378.12 158.908 378.227 158.92 378.334 158.937C378.501 158.964 378.665 159.004 378.822 159.057C378.903 159.083 378.98 159.112 379.053 159.147C379.1 159.168 379.147 159.188 379.191 159.212C379.194 159.212 379.201 159.214 379.204 159.22C379.251 159.244 379.294 159.267 379.338 159.293C379.348 159.296 379.355 159.302 379.361 159.305C379.401 159.328 379.442 159.354 379.482 159.381C379.575 159.442 379.666 159.509 379.746 159.582C379.773 159.605 379.796 159.626 379.823 159.649C379.826 159.652 379.833 159.658 379.836 159.661C379.853 159.675 379.867 159.69 379.883 159.704C379.883 159.704 379.89 159.71 379.893 159.713C379.92 159.739 379.947 159.769 379.97 159.798C380.007 159.839 380.044 159.879 380.077 159.923C380.369 160.296 380.536 160.743 380.536 161.224L380.539 161.233Z" fill="#FFB93E"/>
<path id="Vector_93" d="M326.289 169.605H267.102C265.83 169.605 264.782 168.623 264.719 167.395C264.719 167.354 264.719 167.316 264.719 167.275V161.233C264.719 161.192 264.719 161.154 264.719 161.113C264.782 159.888 265.83 158.902 267.102 158.902H319.019C319.039 158.984 319.063 159.066 319.086 159.15C319.946 162.274 321.891 166.476 326.262 169.588C326.269 169.594 326.279 169.6 326.286 169.605H326.289Z" fill="#FFA412"/>
<g id="Group_20">
<path id="Vector_94" d="M367.095 158.905H365.84V169.608H367.095V158.905Z" fill="#FFA412"/>
<path id="Vector_95" d="M362.844 158.905H361.589V169.608H362.844V158.905Z" fill="#FFA412"/>
<path id="Vector_96" d="M357.747 158.905H356.492V169.608H357.747V158.905Z" fill="#FFA412"/>
<path id="Vector_97" d="M349.935 158.905H348.68V169.608H349.935V158.905Z" fill="#FFA412"/>
<path id="Vector_98" d="M341.675 158.905H340.42V169.608H341.675V158.905Z" fill="#FFA412"/>
<path id="Vector_99" d="M329.01 158.905H327.755V169.608H329.01V158.905Z" fill="#FFA412"/>
<path id="Vector_100" d="M317.152 158.905H315.897V169.608H317.152V158.905Z" fill="#FFA412"/>
<path id="Vector_101" d="M306.562 158.905H305.307V169.608H306.562V158.905Z" fill="#FFA412"/>
<path id="Vector_102" d="M371.141 158.905H369.886V169.608H371.141V158.905Z" fill="#FFA412"/>
<path id="Vector_103" d="M373.812 158.905H372.557V169.608H373.812V158.905Z" fill="#FFA412"/>
<path id="Vector_104" d="M376.396 158.905H375.141V169.608H376.396V158.905Z" fill="#FFA412"/>
<path id="Vector_105" d="M378.337 158.943V169.571C378.183 169.594 378.026 169.608 377.865 169.608H377.082V158.905H377.865C378.026 158.905 378.183 158.917 378.337 158.943Z" fill="#FFA412"/>
<path id="Vector_106" d="M380.081 159.932V168.576C379.776 168.967 379.338 169.276 378.826 169.448V159.06C379.338 159.232 379.776 159.541 380.081 159.932Z" fill="#FFA412"/>
</g>
</g>
<g id="Group_21">
<path id="Vector_107" d="M388.659 150.78V156.823C388.659 157.304 388.492 157.75 388.2 158.124C387.896 158.514 387.457 158.824 386.945 158.996C386.788 159.051 386.624 159.089 386.457 159.115C386.303 159.139 386.145 159.153 385.985 159.153H275.509C275.081 159.153 274.676 159.066 274.314 158.905C273.508 158.552 272.932 157.855 272.845 157.039C272.845 157.007 272.838 156.975 272.838 156.943C272.838 156.902 272.838 156.864 272.838 156.823V150.78C272.838 150.739 272.838 150.701 272.838 150.661C272.905 149.526 273.913 148.602 275.191 148.467C275.295 148.456 275.399 148.45 275.506 148.45H385.981C386.142 148.45 386.299 148.462 386.453 148.488C386.621 148.514 386.785 148.555 386.942 148.607C387.454 148.78 387.893 149.089 388.197 149.479C388.488 149.853 388.656 150.299 388.656 150.78H388.659Z" fill="#FFB93E"/>
<path id="Vector_108" d="M334.412 159.15H275.225C274.843 159.15 274.482 159.063 274.16 158.902C273.441 158.55 272.929 157.853 272.848 157.036C272.848 157.004 272.842 156.972 272.842 156.94C272.842 156.899 272.842 156.861 272.842 156.82V150.777C272.842 150.737 272.842 150.699 272.842 150.658C272.902 149.526 273.802 148.599 274.943 148.465C275.034 148.453 275.131 148.447 275.225 148.447H327.142C327.142 148.447 327.142 148.459 327.146 148.465C327.956 151.533 329.813 155.738 334.07 158.902C334.181 158.987 334.295 159.069 334.412 159.15Z" fill="#FFA412"/>
<g id="Group_22">
<path id="Vector_109" d="M375.218 148.45H373.963V159.15H375.218V148.45Z" fill="#FFA412"/>
<path id="Vector_110" d="M370.967 148.45H369.712V159.15H370.967V148.45Z" fill="#FFA412"/>
<path id="Vector_111" d="M365.87 148.45H364.615V159.15H365.87V148.45Z" fill="#FFA412"/>
<path id="Vector_112" d="M358.058 148.45H356.803V159.15H358.058V148.45Z" fill="#FFA412"/>
<path id="Vector_113" d="M349.798 148.45H348.543V159.15H349.798V148.45Z" fill="#FFA412"/>
<path id="Vector_114" d="M337.13 148.45H335.874V159.15H337.13V148.45Z" fill="#FFA412"/>
<path id="Vector_115" d="M325.271 148.45H324.016V159.15H325.271V148.45Z" fill="#FFA412"/>
<path id="Vector_116" d="M314.685 148.45H313.43V159.15H314.685V148.45Z" fill="#FFA412"/>
<path id="Vector_117" d="M379.264 148.45H378.009V159.15H379.264V148.45Z" fill="#FFA412"/>
<path id="Vector_118" d="M381.935 148.45H380.68V159.15H381.935V148.45Z" fill="#FFA412"/>
<path id="Vector_119" d="M384.515 148.45H383.26V159.15H384.515V148.45Z" fill="#FFA412"/>
<path id="Vector_120" d="M386.46 148.488V159.115C386.306 159.138 386.149 159.153 385.988 159.153H385.205V148.45H385.988C386.149 148.45 386.306 148.462 386.46 148.488Z" fill="#FFA412"/>
<path id="Vector_121" d="M388.204 149.48V158.124C387.899 158.515 387.461 158.824 386.949 158.996V148.608C387.461 148.78 387.899 149.089 388.204 149.48Z" fill="#FFA412"/>
</g>
</g>
<g id="Group_23">
<path id="Vector_122" d="M380.539 140.095V146.137C380.539 146.619 380.372 147.065 380.081 147.438C379.776 147.829 379.338 148.138 378.826 148.31C378.668 148.366 378.504 148.403 378.337 148.43C378.287 148.438 378.233 148.444 378.183 148.45C378.156 148.45 378.126 148.456 378.096 148.459C378.069 148.459 378.039 148.462 378.009 148.465C377.962 148.465 377.915 148.468 377.868 148.468H267.393C265.967 148.468 264.796 147.485 264.722 146.257C264.722 146.216 264.722 146.178 264.722 146.137V140.095C264.722 140.054 264.722 140.016 264.722 139.975C264.796 138.75 265.967 137.764 267.393 137.764H377.868C378.029 137.764 378.186 137.776 378.34 137.802C378.508 137.829 378.672 137.869 378.829 137.922C379.341 138.094 379.78 138.403 380.084 138.794C380.375 139.167 380.543 139.613 380.543 140.095H380.539Z" fill="#FFB93E"/>
<path id="Vector_123" d="M326.289 148.468H267.102C265.83 148.468 264.782 147.485 264.719 146.257C264.719 146.216 264.719 146.178 264.719 146.137V140.095C264.719 140.054 264.719 140.016 264.719 139.975C264.782 138.75 265.83 137.764 267.102 137.764H319.019C319.846 140.911 321.774 145.257 326.265 148.45C326.272 148.456 326.282 148.462 326.289 148.468Z" fill="#FFA412"/>
<g id="Group_24">
<path id="Vector_124" d="M367.095 137.764H365.84V148.468H367.095V137.764Z" fill="#FFA412"/>
<path id="Vector_125" d="M362.844 137.764H361.589V148.468H362.844V137.764Z" fill="#FFA412"/>
<path id="Vector_126" d="M357.747 137.764H356.492V148.468H357.747V137.764Z" fill="#FFA412"/>
<path id="Vector_127" d="M349.935 137.764H348.68V148.468H349.935V137.764Z" fill="#FFA412"/>
<path id="Vector_128" d="M341.675 137.764H340.42V148.468H341.675V137.764Z" fill="#FFA412"/>
<path id="Vector_129" d="M329.01 137.764H327.755V148.468H329.01V137.764Z" fill="#FFA412"/>
<path id="Vector_130" d="M317.152 137.764H315.897V148.468H317.152V137.764Z" fill="#FFA412"/>
<path id="Vector_131" d="M306.562 137.764H305.307V148.468H306.562V137.764Z" fill="#FFA412"/>
<path id="Vector_132" d="M371.141 137.764H369.886V148.468H371.141V137.764Z" fill="#FFA412"/>
<path id="Vector_133" d="M373.812 137.764H372.557V148.468H373.812V137.764Z" fill="#FFA412"/>
<path id="Vector_134" d="M376.396 137.764H375.141V148.468H376.396V137.764Z" fill="#FFA412"/>
<path id="Vector_135" d="M378.337 137.802V148.43C378.183 148.453 378.026 148.468 377.865 148.468H377.082V137.764H377.865C378.026 137.764 378.183 137.776 378.337 137.802Z" fill="#FFA412"/>
<path id="Vector_136" d="M380.081 138.794V147.438C379.776 147.829 379.338 148.138 378.826 148.31V137.922C379.338 138.094 379.776 138.403 380.081 138.794Z" fill="#FFA412"/>
</g>
</g>
</g>
<g id="Group_25">
<path id="Vector_137" d="M340.627 117.846L286.895 65.5927C281.105 59.964 270.402 63.5308 270.402 71.09V202.756C270.402 202.756 340.627 211.243 340.627 202.756V117.846Z" fill="#ED7D2B"/>
<g id="Group_26">
<g id="Group_27">
<g id="Group_28">
<path id="Vector_138" d="M246.468 200.928L270 198.309C270 198.309 268.032 185.672 271.386 168.599C273.859 155.989 279.234 140.961 290.443 126.819C309.558 102.701 369.013 87.4539 369.013 87.4539L368.869 84.4267L366.7 84.3013C366.7 84.3013 367.603 83.7005 368.818 83.3301L368.48 76.1733C366.703 76.2141 364.166 76.3979 361.679 77.0016C363.072 76.6458 366.044 75.9371 368.457 75.6863L368.28 71.9241C281.353 77.0861 255.143 123.909 247.93 159.678C243.312 182.572 246.474 200.933 246.474 200.933L246.468 200.928Z" fill="#82B378"/>
<path id="Vector_139" d="M142.8 197.991L246.471 200.928C246.347 187.037 249.821 172.542 253.326 161.521C256.827 150.5 260.364 142.953 260.364 142.953C288.485 82.8052 368.276 71.9183 368.276 71.9183L277.785 43.3669C234.931 47.7327 205.625 66.8088 185.604 90.1574C146.388 135.883 142.8 197.988 142.8 197.988V197.991Z" fill="#A8D29F"/>
</g>
<path id="Vector_140" opacity="0.5" d="M142.8 197.991L246.471 200.928L270.003 198.309C270.003 198.309 268.035 185.672 271.389 168.599C266.342 166.193 260.364 163.822 253.326 161.521C251.478 160.918 249.677 160.299 247.93 159.672C180.868 135.577 185.045 94.1295 185.607 90.1603C146.391 135.886 142.803 197.991 142.803 197.991H142.8Z" fill="#82B378"/>
<path id="Vector_141" d="M277.4 47.9893L277.126 47.9952C276.346 48.0068 257.821 48.4297 234.482 59.0949C220.807 65.3477 208.343 73.8431 197.442 84.3479C193.221 88.4134 189.235 92.785 185.49 97.4483C181.276 102.695 177.367 108.309 173.779 114.273C171.885 117.42 170.077 120.663 168.364 124.002C168.213 124.3 168.059 124.597 167.912 124.894C166.613 127.458 165.368 130.074 164.177 132.745C163.715 133.746 156.117 150.43 151.99 167.439C151.552 169.238 151.157 171.04 150.812 172.831C150.575 174.044 150.364 175.252 150.18 176.444C149.708 179.513 149.42 182.499 149.38 185.307C149.356 186.786 149.403 188.215 149.53 189.58V189.603L150.347 196.69L150.521 198.209L150.779 200.47L151.043 202.768L151.137 203.584L151.257 204.634L216.928 201.158L222.35 200.872L222.976 200.84L226.53 200.65L230.078 200.464H230.095L243.292 199.764L242.893 198.233C242.84 198.032 238.438 180.446 243.64 158.074C243.763 157.538 243.894 157.001 244.031 156.458C244.443 154.808 244.908 153.134 245.437 151.439C245.842 150.133 246.28 148.812 246.759 147.485C247.271 146.064 247.817 144.656 248.396 143.265C248.466 143.096 248.536 142.924 248.61 142.754C251.251 136.493 254.567 130.532 258.54 124.897C258.751 124.597 258.965 124.3 259.179 124.002C261.606 120.639 264.267 117.393 267.165 114.273C268.209 113.144 269.287 112.03 270.398 110.934C272.239 109.108 274.167 107.332 276.175 105.6C278.682 103.439 281.319 101.35 284.084 99.3352C284.097 99.3265 284.107 99.3177 284.121 99.309C291.076 94.2491 298.841 89.6499 307.392 85.5262C308.112 85.1762 308.841 84.832 309.574 84.4908C309.581 84.4908 309.584 84.485 309.591 84.4821C309.598 84.4821 309.604 84.4762 309.611 84.4733C320.529 79.3901 332.682 75.0622 345.999 71.5217L350.474 70.3318L277.4 47.9893ZM332.668 72.6036C322.821 75.7621 313.688 79.3959 305.294 83.4847C293.308 89.3233 282.832 96.0922 273.953 103.756C272.738 104.806 271.55 105.871 270.398 106.953C267.871 109.315 265.488 111.756 263.249 114.273C255.006 123.538 248.707 133.836 244.45 145.029C244.292 145.429 244.145 145.831 244.001 146.234C243.927 146.423 243.857 146.613 243.79 146.805C242.873 149.366 242.09 151.889 241.431 154.356C241.196 155.222 240.979 156.079 240.778 156.931C240.54 157.923 240.323 158.897 240.119 159.865C238.194 169.156 237.876 177.363 238.054 183.324C238.254 190.026 239.078 194.937 239.556 197.285L226.095 197.997L222.557 198.183L221.801 198.224L216.496 198.504L197.154 199.531H197.131L154.015 201.811L153.614 198.297L152.59 189.352C152.472 188.098 152.429 186.748 152.452 185.307C152.536 180.35 153.446 174.327 155.153 167.439C156.181 163.283 157.496 158.809 159.096 154.061C162.905 142.746 166.988 133.813 167.032 133.725C168.374 130.713 169.786 127.767 171.265 124.897C171.399 124.635 171.537 124.372 171.677 124.11C173.438 120.73 175.299 117.449 177.253 114.273C179.984 109.823 182.903 105.573 185.995 101.54C190.219 96.0281 194.771 90.9127 199.637 86.2173C210.274 75.9517 222.427 67.6458 235.761 61.533C250.226 54.8983 262.988 52.3085 270.402 51.3024C274.294 50.7745 278.274 51.0895 281.989 52.2269L332.635 67.7099C335.275 68.5178 335.295 71.7608 332.668 72.6036Z" fill="#82B378"/>
<path id="Vector_142" d="M196.441 110.63C197.067 123.853 206.338 131.52 221.51 130.975C236.681 130.43 252.017 121.873 251.391 108.653C250.765 95.4302 241.986 87.8272 226.811 88.3725C211.636 88.9179 195.815 97.4104 196.441 110.63Z" fill="#82B378"/>
</g>
<g id="Group_29">
<path id="Vector_143" d="M340.627 117.846V224.209C338.686 225.247 336.708 226.245 334.69 227.195C333.143 227.927 331.577 228.633 329.991 229.313C327.584 230.342 325.131 231.316 322.627 232.226C322.212 232.381 321.794 232.532 321.372 232.681C320.643 232.941 319.91 233.194 319.17 233.442C318.102 233.804 317.028 234.154 315.943 234.495C313.544 235.25 311.097 235.95 308.61 236.601C307.73 236.834 306.843 237.056 305.953 237.272C302.526 238.111 299.021 238.852 295.437 239.494C292.686 240.118 289.891 240.552 287.073 240.797C280.56 241.669 273.802 242.235 266.8 242.486C265.659 242.53 264.508 242.562 263.353 242.585C261.67 242.623 259.969 242.641 258.256 242.641C256.197 242.641 254.126 242.62 252.047 242.579C234.569 242.241 216.493 240.468 199.032 237.225C197.713 236.98 196.398 236.729 195.086 236.467C179.586 233.375 164.652 229.111 151.137 223.646C150.792 223.509 150.451 223.369 150.113 223.229C146.712 221.832 143.402 220.356 140.199 218.802V117.846C140.199 115.88 142.043 114.273 144.299 114.273H336.524C336.678 114.273 336.828 114.282 336.976 114.293C339.021 114.492 340.627 116.014 340.627 117.846Z" fill="#F99746"/>
<path id="Vector_144" d="M157.677 124.002H154.26C153.978 124.002 153.748 124.203 153.748 124.448C153.748 124.693 153.978 124.897 154.26 124.897H157.677C157.961 124.897 158.189 124.696 158.189 124.448C158.189 124.2 157.961 124.002 157.677 124.002ZM164.511 124.002H161.094C160.813 124.002 160.582 124.203 160.582 124.448C160.582 124.693 160.813 124.897 161.094 124.897H164.511C164.796 124.897 165.027 124.696 165.027 124.448C165.027 124.2 164.796 124.002 164.511 124.002ZM171.677 124.11C171.587 124.043 171.473 124.002 171.349 124.002H167.932C167.647 124.002 167.416 124.203 167.416 124.448C167.416 124.693 167.637 124.889 167.912 124.894C167.918 124.897 167.925 124.897 167.932 124.897H171.349C171.63 124.897 171.861 124.696 171.861 124.448C171.861 124.311 171.791 124.189 171.677 124.11ZM178.184 124.002H174.766C174.482 124.002 174.254 124.203 174.254 124.448C174.254 124.693 174.482 124.897 174.766 124.897H178.184C178.465 124.897 178.696 124.696 178.696 124.448C178.696 124.2 178.465 124.002 178.184 124.002ZM185.018 124.002H181.601C181.316 124.002 181.089 124.203 181.089 124.448C181.089 124.693 181.316 124.897 181.601 124.897H185.018C185.302 124.897 185.53 124.696 185.53 124.448C185.53 124.2 185.302 124.002 185.018 124.002ZM191.852 124.002H188.435C188.154 124.002 187.923 124.203 187.923 124.448C187.923 124.693 188.154 124.897 188.435 124.897H191.852C192.137 124.897 192.365 124.696 192.365 124.448C192.365 124.2 192.137 124.002 191.852 124.002ZM198.687 124.002H195.27C194.989 124.002 194.758 124.203 194.758 124.448C194.758 124.693 194.989 124.897 195.27 124.897H198.687C198.971 124.897 199.202 124.696 199.202 124.448C199.202 124.2 198.971 124.002 198.687 124.002ZM205.525 124.002H202.104C201.917 124.002 201.753 124.09 201.666 124.221C201.619 124.288 201.592 124.367 201.592 124.448C201.592 124.696 201.823 124.897 202.104 124.897H205.525C205.806 124.897 206.037 124.696 206.037 124.448C206.037 124.2 205.806 124.002 205.525 124.002ZM212.359 124.002H208.942C208.657 124.002 208.43 124.203 208.43 124.448C208.43 124.693 208.657 124.897 208.942 124.897H212.359C212.64 124.897 212.871 124.696 212.871 124.448C212.871 124.2 212.64 124.002 212.359 124.002ZM219.194 124.002H215.776C215.492 124.002 215.264 124.203 215.264 124.448C215.264 124.693 215.492 124.897 215.776 124.897H219.194C219.478 124.897 219.706 124.696 219.706 124.448C219.706 124.2 219.478 124.002 219.194 124.002ZM226.028 124.002H222.611C222.33 124.002 222.099 124.203 222.099 124.448C222.099 124.693 222.33 124.897 222.611 124.897H226.028C226.312 124.897 226.54 124.696 226.54 124.448C226.54 124.2 226.312 124.002 226.028 124.002ZM232.862 124.002H229.445C229.164 124.002 228.933 124.203 228.933 124.448C228.933 124.693 229.164 124.897 229.445 124.897H232.862C233.147 124.897 233.378 124.696 233.378 124.448C233.378 124.2 233.147 124.002 232.862 124.002ZM239.7 124.002H236.28C235.999 124.002 235.768 124.203 235.768 124.448C235.768 124.693 235.999 124.897 236.28 124.897H239.7C239.981 124.897 240.212 124.696 240.212 124.448C240.212 124.2 239.981 124.002 239.7 124.002ZM246.535 124.002H243.117C242.85 124.002 242.629 124.18 242.605 124.407C242.602 124.425 242.602 124.434 242.602 124.448C242.602 124.696 242.833 124.897 243.117 124.897H246.535C246.816 124.897 247.047 124.696 247.047 124.448C247.047 124.2 246.816 124.002 246.535 124.002ZM253.369 124.002H249.952C249.667 124.002 249.44 124.203 249.44 124.448C249.44 124.693 249.667 124.897 249.952 124.897H253.369C253.65 124.897 253.881 124.696 253.881 124.448C253.881 124.2 253.65 124.002 253.369 124.002ZM260.204 124.002H256.786C256.502 124.002 256.274 124.203 256.274 124.448C256.274 124.693 256.502 124.897 256.786 124.897H260.204C260.488 124.897 260.716 124.696 260.716 124.448C260.716 124.2 260.488 124.002 260.204 124.002ZM267.038 124.002H263.621C263.34 124.002 263.109 124.203 263.109 124.448C263.109 124.693 263.34 124.897 263.621 124.897H267.038C267.322 124.897 267.55 124.696 267.55 124.448C267.55 124.2 267.322 124.002 267.038 124.002ZM273.872 124.002H270.455C270.435 124.002 270.418 124.002 270.398 124.008C270.144 124.031 269.943 124.221 269.943 124.448C269.943 124.676 270.144 124.868 270.398 124.892C270.418 124.897 270.435 124.897 270.455 124.897H273.872C274.157 124.897 274.388 124.696 274.388 124.448C274.388 124.2 274.157 124.002 273.872 124.002ZM280.71 124.002H277.293C277.009 124.002 276.778 124.203 276.778 124.448C276.778 124.693 277.009 124.897 277.293 124.897H280.71C280.991 124.897 281.222 124.696 281.222 124.448C281.222 124.2 280.991 124.002 280.71 124.002ZM287.545 124.002H284.127C283.843 124.002 283.615 124.203 283.615 124.448C283.615 124.693 283.843 124.897 284.127 124.897H287.545C287.826 124.897 288.057 124.696 288.057 124.448C288.057 124.2 287.826 124.002 287.545 124.002ZM294.379 124.002H290.962C290.677 124.002 290.45 124.203 290.45 124.448C290.45 124.693 290.677 124.897 290.962 124.897H294.379C294.664 124.897 294.891 124.696 294.891 124.448C294.891 124.2 294.664 124.002 294.379 124.002ZM301.214 124.002H297.796C297.515 124.002 297.284 124.203 297.284 124.448C297.284 124.693 297.515 124.897 297.796 124.897H301.214C301.498 124.897 301.726 124.696 301.726 124.448C301.726 124.2 301.498 124.002 301.214 124.002ZM308.048 124.002H304.631C304.35 124.002 304.119 124.203 304.119 124.448C304.119 124.693 304.35 124.897 304.631 124.897H308.048C308.333 124.897 308.563 124.696 308.563 124.448C308.563 124.2 308.333 124.002 308.048 124.002ZM314.886 124.002H311.469C311.184 124.002 310.953 124.203 310.953 124.448C310.953 124.693 311.184 124.897 311.469 124.897H314.886C315.167 124.897 315.398 124.696 315.398 124.448C315.398 124.2 315.167 124.002 314.886 124.002ZM321.72 124.002H318.303C318.019 124.002 317.791 124.203 317.791 124.448C317.791 124.693 318.019 124.897 318.303 124.897H321.72C322.001 124.897 322.232 124.696 322.232 124.448C322.232 124.2 322.001 124.002 321.72 124.002ZM325.094 125.416C324.923 125.218 324.602 125.18 324.378 125.332C324.15 125.481 324.107 125.761 324.277 125.956C324.686 126.426 324.903 126.98 324.903 127.566V128.522C324.903 128.77 325.131 128.972 325.415 128.972C325.7 128.972 325.927 128.77 325.927 128.522V127.566C325.927 126.784 325.64 126.041 325.094 125.416ZM151.622 125.367C151.391 125.221 151.073 125.265 150.903 125.463C150.387 126.078 150.113 126.805 150.113 127.566V128.575C150.113 128.823 150.34 129.024 150.625 129.024C150.909 129.024 151.137 128.823 151.137 128.575V127.566C151.137 126.997 151.341 126.452 151.729 125.994C151.897 125.793 151.85 125.513 151.622 125.367ZM325.415 131.054C325.131 131.054 324.903 131.255 324.903 131.503V134.481C324.903 134.726 325.131 134.927 325.415 134.927C325.7 134.927 325.927 134.726 325.927 134.481V131.503C325.927 131.255 325.7 131.054 325.415 131.054ZM150.625 131.106C150.34 131.106 150.113 131.308 150.113 131.553V134.533C150.113 134.778 150.34 134.979 150.625 134.979C150.909 134.979 151.137 134.778 151.137 134.533V131.553C151.137 131.308 150.906 131.106 150.625 131.106ZM325.415 137.012C325.131 137.012 324.903 137.21 324.903 137.458V140.436C324.903 140.681 325.131 140.882 325.415 140.882C325.7 140.882 325.927 140.681 325.927 140.436V137.458C325.927 137.21 325.7 137.012 325.415 137.012ZM150.625 137.065C150.34 137.065 150.113 137.263 150.113 137.511V140.488C150.113 140.733 150.34 140.935 150.625 140.935C150.909 140.935 151.137 140.733 151.137 140.488V137.511C151.137 137.263 150.906 137.065 150.625 137.065ZM325.415 142.967C325.131 142.967 324.903 143.166 324.903 143.413V146.391C324.903 146.639 325.131 146.837 325.415 146.837C325.7 146.837 325.927 146.639 325.927 146.391V143.413C325.927 143.166 325.7 142.967 325.415 142.967ZM150.625 143.02C150.34 143.02 150.113 143.218 150.113 143.466V146.444C150.113 146.692 150.34 146.89 150.625 146.89C150.909 146.89 151.137 146.692 151.137 146.444V143.466C151.137 143.218 150.906 143.02 150.625 143.02ZM325.415 148.923C325.365 148.923 325.318 148.928 325.275 148.94C325.061 148.993 324.903 149.165 324.903 149.369V152.346C324.903 152.551 325.061 152.723 325.275 152.775C325.318 152.787 325.365 152.793 325.415 152.793C325.7 152.793 325.927 152.594 325.927 152.346V149.369C325.927 149.124 325.7 148.923 325.415 148.923ZM150.625 148.975C150.34 148.975 150.113 149.173 150.113 149.421V152.399C150.113 152.647 150.34 152.845 150.625 152.845C150.909 152.845 151.137 152.647 151.137 152.399V149.421C151.137 149.173 150.906 148.975 150.625 148.975ZM325.415 154.878C325.365 154.878 325.318 154.884 325.275 154.895C325.061 154.948 324.903 155.12 324.903 155.324V158.302C324.903 158.506 325.061 158.681 325.275 158.733C325.318 158.745 325.365 158.751 325.415 158.751C325.7 158.751 325.927 158.55 325.927 158.302V155.324C325.927 155.079 325.7 154.878 325.415 154.878ZM150.625 154.93C150.34 154.93 150.113 155.132 150.113 155.377V158.354C150.113 158.459 150.153 158.552 150.223 158.628C150.314 158.736 150.461 158.803 150.625 158.803C150.906 158.803 151.137 158.602 151.137 158.354V155.377C151.137 155.132 150.906 154.93 150.625 154.93ZM325.415 160.833C325.131 160.833 324.903 161.034 324.903 161.279V164.26C324.903 164.505 325.131 164.706 325.415 164.706C325.7 164.706 325.927 164.505 325.927 164.26V161.279C325.927 161.034 325.7 160.833 325.415 160.833ZM150.625 160.886C150.34 160.886 150.113 161.087 150.113 161.332V164.312C150.113 164.557 150.34 164.759 150.625 164.759C150.909 164.759 151.137 164.557 151.137 164.312V161.332C151.137 161.087 150.906 160.886 150.625 160.886ZM325.415 166.791C325.131 166.791 324.903 166.99 324.903 167.237V170.215C324.903 170.46 325.131 170.661 325.415 170.661C325.7 170.661 325.927 170.46 325.927 170.215V167.237C325.927 166.99 325.7 166.791 325.415 166.791ZM150.625 166.841C150.34 166.841 150.113 167.042 150.113 167.29V170.268C150.113 170.513 150.34 170.714 150.625 170.714C150.909 170.714 151.137 170.513 151.137 170.268V167.29C151.137 167.042 150.906 166.841 150.625 166.841ZM325.415 172.747C325.131 172.747 324.903 172.945 324.903 173.193V176.17C324.903 176.418 325.131 176.617 325.415 176.617C325.7 176.617 325.927 176.418 325.927 176.17V173.193C325.927 172.945 325.7 172.747 325.415 172.747ZM150.812 172.831C150.755 172.811 150.692 172.799 150.625 172.799C150.34 172.799 150.113 172.997 150.113 173.245V176.223C150.113 176.304 150.136 176.38 150.18 176.444C150.267 176.579 150.434 176.669 150.625 176.669C150.906 176.669 151.137 176.471 151.137 176.223V173.245C151.137 173.056 151.003 172.895 150.812 172.831ZM325.415 178.702C325.131 178.702 324.903 178.9 324.903 179.148V182.126C324.903 182.318 325.037 182.476 325.228 182.54C325.285 182.56 325.348 182.572 325.412 182.572C325.696 182.572 325.924 182.373 325.924 182.126V179.148C325.924 178.9 325.696 178.702 325.412 178.702H325.415ZM150.625 178.754C150.34 178.754 150.113 178.953 150.113 179.2V182.178C150.113 182.426 150.34 182.624 150.625 182.624C150.909 182.624 151.137 182.426 151.137 182.178V179.2C151.137 178.953 150.906 178.754 150.625 178.754ZM325.415 184.657C325.131 184.657 324.903 184.858 324.903 185.103V188.081C324.903 188.329 325.131 188.53 325.415 188.53C325.7 188.53 325.927 188.329 325.927 188.081V185.103C325.927 184.858 325.7 184.657 325.415 184.657ZM150.625 184.71C150.34 184.71 150.113 184.911 150.113 185.156V188.133C150.113 188.381 150.34 188.582 150.625 188.582C150.909 188.582 151.137 188.381 151.137 188.133V185.156C151.137 184.911 150.906 184.71 150.625 184.71ZM325.921 190.994C325.904 190.889 325.844 190.793 325.757 190.729C325.666 190.656 325.546 190.612 325.415 190.612C325.285 190.612 325.164 190.656 325.074 190.729C324.987 190.793 324.927 190.889 324.91 190.994C324.91 191.015 324.903 191.038 324.903 191.058V194.039C324.903 194.284 325.131 194.485 325.415 194.485C325.7 194.485 325.927 194.284 325.927 194.039V191.058C325.927 191.038 325.927 191.015 325.921 190.994ZM150.625 190.665C150.34 190.665 150.113 190.866 150.113 191.111V194.092C150.113 194.337 150.34 194.538 150.625 194.538C150.909 194.538 151.137 194.337 151.137 194.092V191.111C151.137 190.866 150.906 190.665 150.625 190.665ZM325.415 196.568C325.131 196.568 324.903 196.769 324.903 197.017V199.994C324.903 200.239 325.131 200.44 325.415 200.44C325.7 200.44 325.927 200.239 325.927 199.994V197.017C325.927 196.769 325.7 196.568 325.415 196.568ZM150.625 196.62C150.521 196.62 150.427 196.646 150.347 196.69C150.207 196.772 150.113 196.912 150.113 197.069V200.047C150.113 200.292 150.34 200.493 150.625 200.493C150.678 200.493 150.732 200.484 150.779 200.47C150.986 200.414 151.137 200.245 151.137 200.047V197.069C151.137 196.821 150.906 196.62 150.625 196.62ZM325.415 202.526C325.131 202.526 324.903 202.724 324.903 202.972V205.95C324.903 206.197 325.131 206.396 325.415 206.396C325.7 206.396 325.927 206.197 325.927 205.95V202.972C325.927 202.724 325.7 202.526 325.415 202.526ZM151.043 202.768C150.95 202.654 150.799 202.578 150.625 202.578C150.34 202.578 150.113 202.777 150.113 203.024V206.002C150.113 206.247 150.34 206.448 150.625 206.448C150.909 206.448 151.137 206.247 151.137 206.002V203.024C151.137 202.928 151.103 202.841 151.043 202.768ZM325.415 208.481C325.131 208.481 324.903 208.679 324.903 208.927V211.905C324.903 211.951 324.91 211.998 324.93 212.039C324.93 212.045 324.93 212.051 324.937 212.056C324.987 212.191 325.114 212.296 325.275 212.334C325.318 212.345 325.365 212.351 325.415 212.351C325.64 212.351 325.827 212.229 325.894 212.056C325.901 212.051 325.901 212.045 325.901 212.039C325.921 211.998 325.927 211.951 325.927 211.905V208.927C325.927 208.679 325.7 208.481 325.415 208.481ZM150.625 208.533C150.34 208.533 150.113 208.732 150.113 208.98V211.957C150.113 212.205 150.34 212.404 150.625 212.404C150.909 212.404 151.137 212.205 151.137 211.957V208.98C151.137 208.732 150.906 208.533 150.625 208.533ZM325.415 214.436C325.365 214.436 325.318 214.442 325.275 214.454C325.061 214.506 324.903 214.678 324.903 214.882V217.86C324.903 218.064 325.061 218.236 325.275 218.289C325.318 218.3 325.365 218.306 325.415 218.306C325.7 218.306 325.927 218.108 325.927 217.86V214.882C325.927 214.637 325.7 214.436 325.415 214.436ZM150.625 214.489C150.34 214.489 150.113 214.69 150.113 214.935V217.913C150.113 218.16 150.34 218.359 150.625 218.359C150.909 218.359 151.137 218.16 151.137 217.913V214.935C151.137 214.69 150.906 214.489 150.625 214.489ZM325.415 220.391C325.365 220.391 325.318 220.397 325.275 220.409C325.061 220.461 324.903 220.634 324.903 220.838V223.815C324.903 224.063 325.131 224.264 325.415 224.264C325.7 224.264 325.927 224.063 325.927 223.815V220.838C325.927 220.593 325.7 220.391 325.415 220.391ZM150.625 220.444C150.34 220.444 150.113 220.645 150.113 220.89V223.229C150.451 223.369 150.792 223.509 151.137 223.646V220.89C151.137 220.645 150.906 220.444 150.625 220.444ZM325.914 226.697C325.864 226.495 325.66 226.347 325.415 226.347C325.131 226.347 324.903 226.548 324.903 226.796V229.773C324.903 230.018 325.131 230.22 325.415 230.22C325.7 230.22 325.927 230.018 325.927 229.773V226.796C325.927 226.761 325.927 226.729 325.914 226.697ZM198.807 236.379H195.39C195.276 236.379 195.169 236.411 195.086 236.467C196.398 236.729 197.713 236.98 199.032 237.225C199.202 237.155 199.319 237.003 199.319 236.825C199.319 236.577 199.092 236.379 198.807 236.379ZM205.642 236.379H202.225C201.943 236.379 201.713 236.577 201.713 236.825C201.713 237.073 201.943 237.272 202.225 237.272H205.642C205.926 237.272 206.154 237.073 206.154 236.825C206.154 236.577 205.926 236.379 205.642 236.379ZM212.476 236.379H209.059C208.778 236.379 208.547 236.577 208.547 236.825C208.547 237.073 208.778 237.272 209.059 237.272H212.476C212.761 237.272 212.992 237.073 212.992 236.825C212.992 236.577 212.761 236.379 212.476 236.379ZM219.314 236.379H215.893C215.612 236.379 215.381 236.577 215.381 236.825C215.381 237.073 215.612 237.272 215.893 237.272H219.314C219.595 237.272 219.826 237.073 219.826 236.825C219.826 236.577 219.595 236.379 219.314 236.379ZM226.148 236.379H222.731C222.447 236.379 222.216 236.577 222.216 236.825C222.216 237.073 222.447 237.272 222.731 237.272H226.148C226.43 237.272 226.661 237.073 226.661 236.825C226.661 236.577 226.43 236.379 226.148 236.379ZM232.983 236.379H229.566C229.281 236.379 229.054 236.577 229.054 236.825C229.054 237.073 229.281 237.272 229.566 237.272H232.983C233.267 237.272 233.495 237.073 233.495 236.825C233.495 236.577 233.267 236.379 232.983 236.379ZM239.817 236.379H236.4C236.116 236.379 235.888 236.577 235.888 236.825C235.888 237.073 236.116 237.272 236.4 237.272H239.817C240.102 237.272 240.329 237.073 240.329 236.825C240.329 236.577 240.102 236.379 239.817 236.379ZM246.652 236.379H243.235C242.953 236.379 242.723 236.577 242.723 236.825C242.723 237.073 242.953 237.272 243.235 237.272H246.652C246.936 237.272 247.164 237.073 247.164 236.825C247.164 236.577 246.936 236.379 246.652 236.379ZM253.49 236.379H250.069C249.939 236.379 249.821 236.423 249.731 236.493C249.624 236.572 249.557 236.691 249.557 236.825C249.557 237.073 249.788 237.272 250.069 237.272H253.49C253.771 237.272 254.002 237.073 254.002 236.825C254.002 236.577 253.771 236.379 253.49 236.379ZM260.324 236.379H256.907C256.622 236.379 256.391 236.577 256.391 236.825C256.391 237.073 256.622 237.272 256.907 237.272H260.324C260.605 237.272 260.836 237.073 260.836 236.825C260.836 236.577 260.605 236.379 260.324 236.379ZM267.159 236.379H263.741C263.457 236.379 263.229 236.577 263.229 236.825C263.229 237.073 263.457 237.272 263.741 237.272H267.159C267.44 237.272 267.671 237.073 267.671 236.825C267.671 236.577 267.44 236.379 267.159 236.379ZM273.993 236.379H270.576C270.291 236.379 270.064 236.577 270.064 236.825C270.064 237.073 270.291 237.272 270.576 237.272H273.993C274.277 237.272 274.505 237.073 274.505 236.825C274.505 236.577 274.277 236.379 273.993 236.379ZM280.827 236.379H277.41C277.129 236.379 276.898 236.577 276.898 236.825C276.898 237.073 277.129 237.272 277.41 237.272H280.827C281.112 237.272 281.339 237.073 281.339 236.825C281.339 236.577 281.112 236.379 280.827 236.379ZM287.662 236.379H284.245C283.963 236.379 283.733 236.577 283.733 236.825C283.733 237.073 283.963 237.272 284.245 237.272H287.662C287.946 237.272 288.177 237.073 288.177 236.825C288.177 236.577 287.946 236.379 287.662 236.379ZM294.5 236.379H291.082C290.798 236.379 290.567 236.577 290.567 236.825C290.567 237.073 290.798 237.272 291.082 237.272H294.5C294.781 237.272 295.012 237.073 295.012 236.825C295.012 236.577 294.781 236.379 294.5 236.379ZM301.334 236.379H297.917C297.632 236.379 297.405 236.577 297.405 236.825C297.405 237.073 297.632 237.272 297.917 237.272H301.334C301.615 237.272 301.846 237.073 301.846 236.825C301.846 236.577 301.615 236.379 301.334 236.379ZM308.169 236.379H304.751C304.48 236.379 304.259 236.56 304.243 236.793C304.243 236.802 304.243 236.814 304.243 236.825C304.243 237.073 304.47 237.272 304.755 237.272H305.956C306.846 237.056 307.733 236.834 308.614 236.601C308.527 236.467 308.363 236.379 308.172 236.379H308.169Z" fill="#ED7D2B"/>
<path id="Vector_145" d="M126.872 167.439H157.597C161.944 167.439 165.475 170.515 165.475 174.304V178.442C165.475 182.231 161.944 185.307 157.597 185.307H126.872C122.524 185.307 118.993 182.231 118.993 178.442V174.304C118.993 170.515 122.524 167.439 126.872 167.439Z" fill="#ED7D2B"/>
</g>
<g id="Group_30">
<path id="Vector_146" d="M351.157 190.729C351.157 190.819 351.157 190.907 351.15 190.994C351.039 194.488 350.557 197.959 349.717 201.356C349.717 201.377 349.707 201.397 349.704 201.417C349.704 201.423 349.704 201.426 349.704 201.432C349.409 202.625 349.068 203.806 348.683 204.978C347.9 207.384 346.933 209.744 345.788 212.039C345.788 212.045 345.788 212.051 345.781 212.056C344.342 214.955 342.622 217.755 340.63 220.421C340.045 221.208 339.436 221.981 338.8 222.742C337.528 224.279 336.156 225.766 334.693 227.195C333.147 227.927 331.58 228.633 329.994 229.313C327.587 230.342 325.134 231.316 322.631 232.226C322.216 232.381 321.797 232.532 321.376 232.681C320.646 232.941 319.913 233.194 319.173 233.442C318.106 233.804 317.031 234.154 315.947 234.495C313.547 235.25 311.1 235.95 308.614 236.601C307.733 236.834 306.847 237.056 305.956 237.272C302.529 238.111 299.025 238.852 295.44 239.494C292.689 240.118 289.894 240.552 287.076 240.797C280.563 241.669 273.806 242.235 266.804 242.486C265.662 242.53 264.511 242.562 263.356 242.585C259.086 241.2 254.976 239.424 251.103 237.272C250.641 237.021 250.186 236.758 249.734 236.493C241.427 231.625 234.292 225.005 229.124 216.839C225.877 211.707 223.638 206.326 222.353 200.872C222.303 200.662 222.253 200.452 222.209 200.239C222.059 199.568 221.925 198.898 221.804 198.224C219.013 182.668 223.836 166.736 234.951 154.414C237.612 151.46 240.637 148.715 244.004 146.234C245.41 145.195 246.876 144.204 248.399 143.265C249.641 142.492 250.923 141.76 252.241 141.06C252.248 141.06 252.251 141.054 252.258 141.054C252.703 140.815 253.155 140.582 253.61 140.354C253.968 140.173 254.33 139.995 254.695 139.821C257.683 138.383 260.749 137.175 263.858 136.187C266.021 135.496 268.203 134.915 270.402 134.437C275.593 133.311 280.864 132.763 286.099 132.766C295.32 132.772 304.427 134.489 312.791 137.764C313.838 138.173 314.876 138.607 315.9 139.065C316.322 139.252 316.74 139.444 317.155 139.643C318.209 140.138 319.247 140.66 320.268 141.212C321.854 142.06 323.404 142.973 324.907 143.947C325.251 144.166 325.593 144.393 325.931 144.621C326.547 145.035 327.156 145.464 327.758 145.901C328.18 146.204 328.598 146.517 329.013 146.834C329.699 147.359 330.375 147.899 331.041 148.45C331.048 148.456 331.055 148.462 331.062 148.468C332.748 149.873 334.358 151.366 335.881 152.947C336.31 153.388 336.728 153.84 337.136 154.295C338.368 155.651 339.533 157.065 340.63 158.538C340.721 158.66 340.811 158.783 340.898 158.905C340.962 158.987 341.022 159.069 341.076 159.15C341.283 159.43 341.484 159.71 341.678 159.993C342.163 160.684 342.632 161.387 343.084 162.102C344.63 164.549 345.949 167.051 347.043 169.588C347.043 169.594 347.05 169.6 347.05 169.606C348.563 173.114 349.65 176.689 350.327 180.291C350.979 183.765 351.254 187.261 351.16 190.729H351.157Z" fill="#E2810E"/>
<path id="Vector_147" d="M345.273 201.356C345.273 201.382 345.263 201.409 345.259 201.432C344.543 205.054 343.429 208.606 341.926 212.039C341.926 212.045 341.926 212.051 341.919 212.056C341.517 212.981 341.086 213.897 340.627 214.801C339.6 216.831 338.435 218.811 337.133 220.727C336.728 221.328 336.31 221.92 335.878 222.503C335.821 222.585 335.761 222.663 335.7 222.742C333.994 225.04 332.089 227.236 329.991 229.313C327.584 230.342 325.131 231.316 322.627 232.226C322.212 232.381 321.794 232.532 321.372 232.681C320.643 232.941 319.91 233.194 319.17 233.442C318.102 233.804 317.028 234.154 315.943 234.495C313.544 235.25 311.097 235.95 308.61 236.601C307.73 236.834 306.843 237.056 305.953 237.272C302.526 238.111 299.021 238.852 295.437 239.494C292.686 240.118 289.891 240.552 287.073 240.797C280.56 241.669 273.802 242.235 266.8 242.486C265.659 242.53 264.508 242.562 263.353 242.585C261.67 242.623 259.969 242.641 258.256 242.641C256.197 242.641 254.126 242.62 252.047 242.579C240.634 237.622 230.771 229.695 224.147 219.228C220.482 213.436 218.102 207.332 216.928 201.158C216.857 200.802 216.794 200.443 216.737 200.085C216.647 199.56 216.566 199.032 216.496 198.504C214.297 182.222 220.345 165.73 233.127 153.568C236.089 150.748 239.412 148.161 243.081 145.863C243.533 145.58 243.988 145.303 244.45 145.029C245.792 144.23 247.181 143.472 248.61 142.754C248.975 142.568 249.346 142.387 249.718 142.209C250.551 141.807 251.394 141.425 252.238 141.06C252.245 141.06 252.248 141.054 252.255 141.054C252.683 140.867 253.111 140.687 253.543 140.509C253.935 140.351 254.326 140.194 254.718 140.042C257.265 139.053 259.852 138.219 262.466 137.537C262.714 137.473 262.961 137.409 263.209 137.347C265.589 136.75 267.989 136.277 270.398 135.927C271.68 135.738 272.962 135.586 274.247 135.469C277.668 135.154 281.092 135.078 284.492 135.233C289.975 135.484 295.387 136.338 300.598 137.764C302.188 138.199 303.757 138.686 305.307 139.226C305.729 139.371 306.147 139.52 306.562 139.678C307.643 140.074 308.711 140.5 309.768 140.949C311.864 141.842 313.912 142.836 315.897 143.93C316.318 144.157 316.737 144.393 317.152 144.638C319.177 145.805 321.131 147.076 323.006 148.45C323.012 148.456 323.022 148.462 323.029 148.468C323.36 148.71 323.692 148.958 324.02 149.208C324.314 149.433 324.612 149.663 324.903 149.894C325.027 149.993 325.151 150.092 325.275 150.194C325.492 150.369 325.71 150.547 325.927 150.725C327.149 151.734 328.33 152.793 329.468 153.895C331.098 155.473 332.641 157.144 334.081 158.905C334.087 158.911 334.091 158.914 334.094 158.92V158.926C334.154 159.002 334.218 159.074 334.275 159.15C335.65 160.848 336.929 162.63 338.107 164.49C338.944 165.814 339.713 167.156 340.416 168.509C340.487 168.643 340.557 168.777 340.624 168.911C340.738 169.136 340.851 169.363 340.962 169.588C340.965 169.594 340.969 169.6 340.972 169.606C341.43 170.542 341.859 171.484 342.257 172.429C342.719 173.522 343.134 174.622 343.512 175.727C344.031 177.241 344.473 178.763 344.838 180.291C345.316 182.292 345.668 184.304 345.892 186.319C346.059 187.789 346.156 189.262 346.186 190.729C346.186 190.819 346.193 190.907 346.193 190.994C346.25 194.479 345.939 197.947 345.269 201.356H345.273Z" fill="#FFB93E"/>
<path id="Vector_148" d="M340.784 190.994C340.784 190.904 340.781 190.816 340.774 190.729C340.751 189.933 340.697 189.14 340.627 188.346C340.379 185.634 339.884 182.942 339.144 180.291C338.97 179.673 338.783 179.06 338.586 178.448C337.602 175.427 336.296 172.469 334.67 169.606C334.67 169.6 334.663 169.594 334.66 169.588C334.265 168.888 333.85 168.197 333.415 167.509C332.092 165.418 330.62 163.426 329.01 161.539C328.602 161.061 328.18 160.585 327.755 160.121C327.454 159.795 327.149 159.468 326.841 159.15C326.761 159.069 326.684 158.987 326.603 158.905C326.379 158.675 326.155 158.447 325.927 158.223C325.713 158.007 325.496 157.797 325.275 157.587C325.154 157.468 325.027 157.351 324.903 157.234C324.612 156.963 324.321 156.692 324.02 156.426C321.188 153.875 318.062 151.594 314.685 149.614C314.27 149.369 313.852 149.13 313.43 148.896C313.169 148.753 312.911 148.61 312.647 148.468C312.637 148.462 312.623 148.456 312.613 148.45C310.669 147.412 308.651 146.467 306.562 145.624C306.147 145.455 305.729 145.292 305.307 145.131C302.944 144.233 300.494 143.463 297.974 142.827C292.465 141.439 286.849 140.757 281.269 140.768C277.618 140.777 273.98 141.08 270.398 141.681C268.487 141.999 266.59 142.402 264.715 142.889C263.028 143.323 261.358 143.828 259.715 144.399C257.392 145.204 255.113 146.14 252.887 147.211C252.194 147.543 251.508 147.887 250.836 148.243C248.958 149.229 247.161 150.296 245.44 151.439C244.051 152.361 242.713 153.335 241.434 154.356C240.654 154.971 239.898 155.607 239.165 156.26C232.354 162.291 227.333 169.737 224.559 178.092C222.356 184.721 221.704 191.525 222.561 198.183C222.648 198.877 222.751 199.568 222.875 200.26C222.909 200.452 222.942 200.648 222.979 200.84C224.067 206.565 226.279 212.15 229.589 217.382C234.59 225.282 241.702 231.765 250.28 236.379C250.849 236.685 251.425 236.983 252.007 237.272C256.063 239.293 260.428 240.905 265.03 242.066C265.619 242.215 266.211 242.355 266.804 242.486C273.806 242.235 280.563 241.669 287.076 240.797C280.088 241.413 272.962 240.859 266.014 239.106C263.962 238.59 261.964 237.977 260.02 237.272C259.236 236.989 258.463 236.691 257.7 236.379C247.137 232.057 238.428 224.97 232.685 215.894C229.633 211.068 227.574 205.926 226.533 200.65C226.513 200.554 226.497 200.458 226.48 200.362C226.329 199.577 226.202 198.787 226.098 197.997C225.262 191.685 225.871 185.232 227.956 178.947C230.346 171.746 234.516 165.263 240.122 159.865C240.912 159.107 241.729 158.369 242.572 157.654C243.051 157.249 243.539 156.849 244.035 156.458C245.778 155.088 247.626 153.807 249.574 152.626C251.18 151.649 252.857 150.742 254.594 149.908C255.732 149.363 256.883 148.853 258.048 148.38C260.227 147.494 262.456 146.738 264.719 146.111C266.593 145.592 268.491 145.163 270.402 144.822C273.457 144.277 276.557 143.962 279.673 143.874C285.45 143.714 291.283 144.347 296.993 145.787C299.815 146.499 302.542 147.389 305.156 148.45C305.17 148.456 305.183 148.462 305.2 148.468C308.088 149.643 310.843 151.025 313.433 152.6C313.855 152.857 314.273 153.119 314.688 153.385C317.252 155.038 319.649 156.884 321.854 158.905C321.945 158.987 322.035 159.069 322.122 159.15C323.089 160.049 324.016 160.979 324.907 161.944C325.255 162.32 325.593 162.702 325.931 163.09C326.563 163.819 327.172 164.566 327.758 165.33C328.19 165.89 328.612 166.459 329.013 167.039C329.468 167.681 329.904 168.334 330.322 168.996C330.446 169.191 330.57 169.39 330.69 169.588C330.69 169.588 330.697 169.6 330.7 169.606C331.035 170.148 331.353 170.696 331.661 171.25C333.294 174.173 334.573 177.2 335.493 180.291C336.517 183.709 337.099 187.209 337.237 190.729C337.237 190.816 337.243 190.907 337.247 190.994C337.364 194.444 337.049 197.912 336.306 201.356C336.3 201.38 336.296 201.406 336.29 201.432C335.975 202.882 335.58 204.325 335.111 205.76C335.091 205.821 335.071 205.882 335.051 205.944C334.355 208.041 333.508 210.073 332.521 212.039C332.518 212.045 332.514 212.051 332.511 212.056C330.754 215.55 328.545 218.825 325.931 221.826C325.717 222.071 325.499 222.316 325.278 222.558C325.225 222.62 325.168 222.681 325.111 222.742C325.044 222.818 324.977 222.891 324.907 222.967C324.177 223.751 323.421 224.518 322.631 225.262C322.226 225.656 321.804 226.041 321.376 226.423C318.574 228.91 315.451 231.144 312.041 233.081C311.827 233.206 311.609 233.329 311.392 233.442C310.421 233.982 309.427 234.495 308.413 234.982C307.382 235.478 306.338 235.945 305.28 236.379C304.939 236.522 304.594 236.659 304.246 236.793C301.381 237.916 298.436 238.817 295.44 239.494C299.025 238.852 302.529 238.111 305.956 237.272C306.847 237.056 307.733 236.834 308.614 236.601C311.1 235.95 313.547 235.25 315.947 234.495C316.499 234.151 317.045 233.801 317.583 233.442C318.895 232.57 320.161 231.655 321.376 230.695C321.801 230.36 322.219 230.021 322.631 229.674C323.411 229.024 324.17 228.353 324.907 227.668C325.248 227.347 325.586 227.023 325.917 226.697C327.203 225.431 328.418 224.113 329.552 222.742C332.049 219.735 334.171 216.484 335.881 213.031C336.042 212.71 336.199 212.383 336.353 212.056C336.356 212.051 336.356 212.045 336.36 212.039C337.156 210.339 337.853 208.589 338.448 206.801C338.689 206.072 338.913 205.34 339.114 204.608C339.409 203.552 339.667 202.494 339.884 201.432C339.891 201.406 339.894 201.38 339.901 201.356C340.008 200.828 340.105 200.298 340.192 199.77C340.383 198.632 340.53 197.492 340.63 196.352C340.791 194.564 340.845 192.776 340.788 190.994H340.784Z" fill="#FFA412"/>
<path id="Vector_149" d="M311.452 201.432C311.452 201.406 311.445 201.382 311.439 201.356C311.224 200.058 310.803 198.731 310.17 197.381C310.043 197.101 309.906 196.83 309.768 196.565C308.828 194.765 307.683 193.269 306.331 192.079C306.164 191.933 305.996 191.79 305.822 191.653C305.578 191.461 305.33 191.274 305.076 191.093C305.029 191.061 304.982 191.026 304.935 190.994C304.805 190.904 304.674 190.816 304.54 190.729C303.068 189.767 301.424 189.011 299.61 188.469C297.251 187.76 294.617 187.328 291.715 187.177C288.813 187.019 285.65 186.984 282.236 187.069C280.125 187.124 278.321 187.092 276.824 186.973C275.325 186.853 274.053 186.611 273.012 186.246C271.968 185.882 271.121 185.38 270.469 184.745C270.445 184.721 270.418 184.695 270.398 184.672C270.328 184.602 270.258 184.529 270.194 184.456C269.96 184.205 269.746 183.937 269.548 183.648C269.291 183.272 269.06 182.863 268.852 182.42C268.424 181.507 268.183 180.597 268.119 179.696C268.052 178.798 268.209 177.943 268.581 177.133C268.946 176.342 269.528 175.61 270.341 174.94C270.358 174.922 270.375 174.908 270.395 174.893C271.232 174.205 272.336 173.621 273.708 173.134C275.643 172.449 277.48 172.3 279.218 172.682C279.76 172.799 280.292 172.971 280.817 173.193C283.016 174.132 284.807 176.083 286.189 179.052L299.446 174.362C298.613 172.577 297.626 170.991 296.488 169.606C296.481 169.6 296.478 169.594 296.474 169.588C296.039 169.06 295.584 168.561 295.105 168.095C293.368 166.389 291.41 165.071 289.232 164.14C287.053 163.21 284.68 162.667 282.113 162.507C279.549 162.35 276.878 162.586 274.113 163.222L273.14 161.131L272.102 158.905L270.395 155.242L270.358 155.164L263.022 157.762L264.712 161.387L266.723 165.703C266.419 165.84 266.121 165.98 265.83 166.126C265.448 166.31 265.077 166.5 264.712 166.695C262.918 167.649 261.345 168.71 259.986 169.883C258.145 171.472 256.729 173.19 255.742 175.039C254.748 176.891 254.229 178.83 254.179 180.866C254.132 182.901 254.597 184.972 255.578 187.072C256.709 189.498 258.165 191.42 259.946 192.835C261.295 193.908 262.808 194.771 264.481 195.43C265.02 195.643 265.579 195.833 266.151 196.002C267.302 196.343 268.527 196.617 269.816 196.824C270.007 196.856 270.201 196.885 270.395 196.912C271.56 197.081 272.778 197.192 274.05 197.25C276.962 197.387 280.131 197.384 283.552 197.241C285.537 197.142 287.26 197.151 288.723 197.27C290.185 197.387 291.447 197.632 292.512 198.005C293.576 198.379 294.46 198.901 295.166 199.574C295.684 200.067 296.146 200.662 296.545 201.356C296.558 201.382 296.571 201.406 296.588 201.432C296.715 201.657 296.836 201.893 296.95 202.141C297.378 203.059 297.589 203.969 297.582 204.879C297.582 205.051 297.572 205.22 297.552 205.39C297.482 206.116 297.258 206.816 296.876 207.486C296.407 208.315 295.705 209.085 294.771 209.79C293.834 210.496 292.649 211.1 291.21 211.61C290.748 211.774 290.279 211.916 289.804 212.039C289.78 212.045 289.757 212.051 289.737 212.056C288.947 212.258 288.144 212.401 287.32 212.491C285.978 212.631 284.673 212.517 283.395 212.147C283.297 212.118 283.2 212.089 283.103 212.056C283.083 212.051 283.067 212.045 283.05 212.039C281.902 211.651 280.824 211.018 279.813 210.129C278.699 209.158 277.732 207.79 276.912 206.031L264.802 210.318H264.796L263.661 210.721C265.043 213.69 266.78 216.046 268.872 217.781C270.121 218.822 271.443 219.686 272.835 220.371C273.772 220.832 274.739 221.214 275.74 221.514C278.227 222.264 280.827 222.593 283.542 222.494C286.256 222.398 288.937 222.016 291.578 221.336L292.234 222.742L295.002 228.689L302.295 226.108L300.725 222.742L298.851 218.723C301.501 217.525 303.767 216.145 305.658 214.582C306.636 213.777 307.492 212.934 308.232 212.056C308.239 212.051 308.242 212.045 308.246 212.039C308.825 211.351 309.33 210.642 309.765 209.91C309.845 209.776 309.922 209.642 309.996 209.502C310.572 208.452 310.993 207.367 311.258 206.244C311.459 205.419 311.569 204.573 311.596 203.707C311.619 202.957 311.569 202.199 311.449 201.432H311.452Z" fill="#FFA412"/>
</g>
</g>
</g>
<path id="Vector_150" d="M122.875 176.153C122.875 173.823 125.044 171.933 127.718 171.933C130.393 171.933 132.561 173.823 132.561 176.153C132.561 178.483 130.393 180.373 127.718 180.373C125.044 180.373 122.875 178.483 122.875 176.153Z" fill="#FFB93E"/>
</g>
</g>
</svg>
